<svg width="750" height="500" viewBox="0 0 750 500" fill="none" xmlns="http://www.w3.org/2000/svg">
<path d="M692.37 311.22L679.25 311.5L672.59 311.61C670.36 311.66 668.12 311.61 665.89 311.67H665.45V311.22L665.39 300V299.5H665.89L679.13 299.56C683.55 299.56 687.96 299.67 692.37 299.72H692.65V300C692.65 301.9 692.57 303.79 692.52 305.66L692.37 311.22ZM692.37 311.22L692.23 305.57C692.18 303.71 692.12 301.87 692.1 300.03L692.37 300.31C687.96 300.36 683.55 300.47 679.13 300.47L665.89 300.53L666.39 300.03V311.22L665.94 310.78C668.12 310.78 670.3 310.78 672.49 310.83L679 311L692.37 311.22Z" fill="#EBEBEB"/>
<path d="M677.6 325.33L664.48 325.61L657.81 325.72C655.59 325.72 653.35 325.72 651.12 325.78H650.68V325.33V314.14V313.64H651.18L664.42 313.71C668.83 313.71 673.25 313.82 677.66 313.87H677.94V314.14C677.94 316.04 677.86 317.93 677.81 319.8L677.6 325.33ZM677.6 325.33L677.46 319.68C677.41 317.82 677.35 315.98 677.33 314.14L677.6 314.42C673.19 314.47 668.77 314.58 664.36 314.58L651.12 314.64L651.62 314.14V325.33L651.17 324.89C653.35 324.89 655.53 324.89 657.72 324.94L664.29 325.06L677.6 325.33Z" fill="#EBEBEB"/>
<path d="M707.14 325.33L694.02 325.61L687.36 325.72C685.13 325.72 682.89 325.72 680.66 325.78H680.22V325.33L680.16 314.14V313.64H680.66L693.9 313.71C698.32 313.71 702.73 313.82 707.14 313.87H707.42V314.14C707.42 316.04 707.33 317.93 707.29 319.8L707.14 325.33ZM707.14 325.33L707 319.68C707 317.82 706.89 315.98 706.87 314.14L707.14 314.42C702.73 314.47 698.32 314.58 693.9 314.58L680.66 314.64L681.16 314.14V325.33L680.71 324.89C682.9 324.89 685.07 324.89 687.26 324.94L693.84 325.06L707.14 325.33Z" fill="#EBEBEB"/>
<path d="M314.79 178.07L301.67 178.35L295.01 178.46C292.78 178.46 290.54 178.46 288.31 178.46H287.87V178.01L287.81 166.82V166.32H288.31L301.55 166.38C305.97 166.38 310.38 166.49 314.79 166.54H315.07V166.81C315.07 168.71 314.98 170.59 314.93 172.46L314.79 178.07ZM314.79 178.07L314.65 172.41C314.65 170.55 314.54 168.71 314.52 166.88L314.79 167.15C310.38 167.15 305.97 167.31 301.55 167.31L288.31 167.38L288.81 166.88L288.76 178.07L288.31 177.62C290.49 177.62 292.67 177.62 294.86 177.68L301.44 177.79L314.79 178.07Z" fill="#EBEBEB"/>
<path d="M300 192.18L286.88 192.46L280.21 192.57C277.99 192.57 275.75 192.57 273.52 192.62H273.08V192.17L273 181V180.5H273.5L286.74 180.56C291.15 180.56 295.57 180.67 299.98 180.72H300.26V181C300.26 182.9 300.18 184.78 300.13 186.65L300 192.18ZM300 192.18L299.86 186.52C299.81 184.66 299.75 182.82 299.73 180.99L300 181.26C295.59 181.31 291.17 181.42 286.76 181.42L273.52 181.49L274.02 180.99L274 192.18L273.55 191.73C275.73 191.73 277.91 191.73 280.1 191.79L286.67 191.9L300 192.18Z" fill="#EBEBEB"/>
<path d="M329.56 192.18L316.44 192.46L309.78 192.57C307.55 192.57 305.32 192.57 303.08 192.62H302.64V192.17L302.58 181V180.5H303.08L316.32 180.56C320.74 180.56 325.15 180.67 329.56 180.72H329.84V181C329.84 182.9 329.75 184.78 329.71 186.65L329.56 192.18ZM329.56 192.18L329.42 186.52C329.42 184.66 329.31 182.82 329.29 180.99L329.56 181.26C325.15 181.31 320.74 181.42 316.32 181.42L303.08 181.49L303.58 180.99L303.53 192.18L303.08 191.73C305.27 191.73 307.44 191.73 309.63 191.79L316.21 191.9L329.56 192.18Z" fill="#EBEBEB"/>
<path d="M98.88 252.11L85.76 252.39L79.09 252.5C76.87 252.5 74.63 252.5 72.4 252.55H72V252.1V240.91V240.41H72.5L85.74 240.47C90.15 240.47 94.57 240.58 98.98 240.63H99.26V240.9C99.26 242.8 99.18 244.68 99.13 246.55L98.88 252.11ZM98.88 252.11L98.74 246.45C98.74 244.59 98.63 242.75 98.61 240.92L98.88 241.19C94.47 241.24 90.05 241.35 85.64 241.35L72.4 241.42L72.9 240.92L72.85 252.11L72.4 251.66C74.58 251.66 76.76 251.66 78.95 251.72L85.52 251.83L98.88 252.11Z" fill="#EBEBEB"/>
<path d="M537.86 178.06L524.74 178.34L518.08 178.45C515.85 178.5 513.61 178.45 511.38 178.5H510.94V178.05L510.88 166.86V166.36H511.38L524.62 166.42C529.04 166.42 533.45 166.54 537.86 166.59H538.14V166.86C538.14 168.76 538.06 170.65 538.01 172.51L537.86 178.06ZM537.86 178.06L537.72 172.41C537.67 170.54 537.61 168.7 537.59 166.87L537.86 167.14C533.45 167.19 529.04 167.3 524.62 167.31L511.38 167.37L511.88 166.87L511.83 178.06L511.38 177.61C513.56 177.61 515.74 177.61 517.93 177.67L524.51 177.78L537.86 178.06Z" fill="#EBEBEB"/>
<path d="M690.84 69.3799L677.72 69.6599L671.05 69.7699C668.83 69.7699 666.59 69.7699 664.36 69.8299H663.92V69.3799V58.1899V57.6899H664.42L677.66 57.7499C682.07 57.7499 686.49 57.8699 690.9 57.9199H691.18V58.1899C691.18 60.0899 691.1 61.9799 691.05 63.8399L690.84 69.3799ZM690.84 69.3799L690.7 63.7299C690.65 61.8599 690.59 60.0199 690.57 58.1899L690.84 58.4599C686.43 58.4599 682.01 58.6199 677.6 58.6299L664.36 58.6899L664.86 58.1899L664.81 69.3799L664.36 68.9299C666.54 68.9299 668.72 68.9299 670.91 68.9899L677.48 69.0999L690.84 69.3799Z" fill="#EBEBEB"/>
<path d="M705.61 83.49L692.49 83.77L685.83 83.88C683.6 83.93 681.36 83.88 679.13 83.93H678.69V83.48L678.63 72.29V71.79H679.13L692.37 71.85C696.79 71.85 701.2 71.97 705.61 72.02H705.89V72.29C705.89 74.19 705.8 76.08 705.75 77.94L705.61 83.49ZM705.61 83.49L705.47 77.84C705.47 75.97 705.36 74.13 705.34 72.3L705.61 72.57C701.2 72.62 696.79 72.73 692.37 72.74L679.13 72.8L679.63 72.3V83.49L679.18 83.04C681.36 83.04 683.54 83.04 685.73 83.1L692.31 83.21L705.61 83.49Z" fill="#EBEBEB"/>
<path d="M69.34 69.3902L56.21 69.6702L49.55 69.7802C47.33 69.7802 45.09 69.7802 42.86 69.8402H42.41V69.3902V58.2002V57.7002H42.92L56.16 57.7702C60.57 57.7702 64.98 57.8802 69.4 57.9302H69.67V58.2002C69.67 60.1002 69.58 61.9902 69.54 63.8602L69.34 69.3902ZM69.34 69.3902L69.19 63.7402C69.19 61.8702 69.08 60.0302 69.06 58.2002L69.34 58.4702C64.92 58.5302 60.51 58.6302 56.1 58.6402L42.86 58.7002L43.36 58.2002L43.3 69.3902L42.86 69.0002C45.04 69.0002 47.21 69.0002 49.4 69.0002L55.98 69.1102L69.34 69.3902Z" fill="#EBEBEB"/>
<path d="M393.68 208.19C392.453 209.349 390.931 210.148 389.28 210.5C388.28 210.76 387.17 210.91 386.11 211.1H382.49C381 210.87 379.49 210.69 378.04 210.4C372.621 209.237 367.488 207.007 362.94 203.84C350.963 195.922 340.871 185.469 333.38 173.22C330.869 169.178 329.139 164.701 328.28 160.02C328.06 158.79 327.89 157.55 327.7 156.31V152.69C328 151.3 328.24 149.89 328.61 148.52C328.975 147.234 329.663 146.064 330.61 145.12C330.79 145.28 330.95 145.41 331.11 145.57C336.87 151.323 342.633 157.077 348.4 162.83C348.587 162.985 348.72 163.195 348.781 163.43C348.842 163.665 348.828 163.914 348.74 164.14C348.302 165.566 348.243 167.081 348.569 168.537C348.895 169.992 349.595 171.338 350.6 172.44C355.519 178.027 360.786 183.298 366.37 188.22C367.483 189.231 368.841 189.933 370.309 190.258C371.777 190.582 373.305 190.518 374.74 190.07C375.16 189.96 375.46 189.89 375.82 190.25C381.707 196.17 387.607 202.077 393.52 207.97C393.55 208 393.59 208.09 393.68 208.19Z" fill="#EBEBEB"/>
<path d="M405 195.26V196.46C404.478 197.212 403.914 197.933 403.31 198.62C401.53 200.47 399.69 202.26 397.88 204.07L397.32 204.6L379.54 186.83C381.87 184.53 384.19 182.18 386.59 179.89C386.85 179.649 387.156 179.462 387.49 179.341C387.823 179.22 388.178 179.167 388.532 179.186C388.887 179.204 389.234 179.294 389.553 179.449C389.872 179.605 390.157 179.823 390.39 180.09C391.73 181.39 393.03 182.72 394.39 184.03C397.48 187.13 400.59 190.21 403.65 193.33C404.15 193.937 404.601 194.582 405 195.26Z" fill="#EBEBEB"/>
<path d="M358.39 152.78C356.19 154.91 353.94 156.99 351.76 159.05L334.12 141.42C334.51 141.07 334.96 140.7 335.37 140.3C336.99 138.69 338.58 137.04 340.23 135.46C340.9 134.872 341.605 134.324 342.34 133.82H343.55C344.224 134.234 344.866 134.699 345.47 135.21C349.79 139.49 354.093 143.79 358.38 148.11C360 149.73 360 151.19 358.39 152.78Z" fill="#EBEBEB"/>
<path d="M62.76 162.59H178.49V89.1699H62.76V162.59Z" fill="#EBEBEB"/>
<path d="M200.14 162.59H178.49V140.04L200.14 162.59Z" fill="#EBEBEB"/>
<path d="M165.09 101.86H76.15V103.26H165.09V101.86Z" fill="white"/>
<path d="M122.12 109.4H76.15V110.8H122.12V109.4Z" fill="white"/>
<path d="M148.07 124.47H76.15V125.87H148.07V124.47Z" fill="white"/>
<path d="M165.09 132H76.15V133.4H165.09V132Z" fill="white"/>
<path d="M165.09 139.53H76.15V140.93H165.09V139.53Z" fill="white"/>
<path d="M107.75 147.07H76.15V148.47H107.75V147.07Z" fill="white"/>
<path d="M687.24 191.91H571.51V256.66H687.24V191.91Z" fill="#DBDBDB"/>
<path d="M549.86 256.67H571.51V234.12L549.86 256.67Z" fill="#DBDBDB"/>
<path d="M662.6 225.72H585.17V227.12H662.6V225.72Z" fill="white"/>
<path d="M646.68 233.26H585.17V234.66H646.68V233.26Z" fill="white"/>
<path d="M651.32 210.65H585.17V212.05H651.32V210.65Z" fill="white"/>
<path d="M671.54 203.12H585.17V204.52H671.54V203.12Z" fill="white"/>
<path d="M653.06 240.79H585.17V242.19H653.06V240.79Z" fill="white"/>
<path d="M628.77 123.09H416.26V132.41H628.77V123.09Z" fill="#EBEBEB"/>
<path d="M437.49 132.42H428.17V163.24H437.49V132.42Z" fill="#EBEBEB"/>
<path d="M437.49 132.42H428.17V141.95H437.49V132.42Z" fill="#DBDBDB"/>
<path d="M616.86 132.42H607.54V163.24H616.86V132.42Z" fill="#EBEBEB"/>
<path d="M616.86 132.42H607.54V141.95H616.86V132.42Z" fill="#DBDBDB"/>
<path d="M470.89 123.09V63.7002H455.93V123.09H470.89Z" fill="#C7C7C7"/>
<path d="M470.89 67.05V60.52H455.93V67.05H470.89Z" fill="#DBDBDB"/>
<path d="M470.88 77.8399V75.4199H455.92V77.8399H470.88Z" fill="#DBDBDB"/>
<path d="M472.75 115.31V108.78H455.93V115.31H472.75Z" fill="#DBDBDB"/>
<path d="M481.34 123.09V53.8101H470.89V123.09H481.34Z" fill="#DBDBDB"/>
<path d="M479.21 86.9698V60.3198H472.94V86.9698H479.21Z" fill="#EBEBEB"/>
<path d="M555.669 115.69L506.399 66.9844L499.053 74.4161L548.323 123.121L555.669 115.69Z" fill="#C7C7C7"/>
<path d="M542.668 105.73L523.715 86.9946L519.307 91.4536L538.26 110.189L542.668 105.73Z" fill="#DBDBDB"/>
<path d="M499.08 123.11V70.48H481.33V123.11H499.08Z" fill="#A6A6A6"/>
<path d="M499.08 117.52V112.62H481.33V117.52H499.08Z" fill="#C7C7C7"/>
<path d="M499.08 109.41V107.51H481.33V109.41H499.08Z" fill="#C7C7C7"/>
<path d="M455.93 123.11V73.6499H443.67V123.11H455.93Z" fill="#A6A6A6"/>
<path d="M455.93 117.86V113.25H443.67V117.86H455.93Z" fill="#C7C7C7"/>
<path d="M455.93 88.4499V83.8398H443.67V88.4499H455.93Z" fill="#C7C7C7"/>
<path d="M455.93 93.3999V91.6099H443.67V93.3999H455.93Z" fill="#C7C7C7"/>
<path d="M606.43 100.05L605.1 103.58L604.28 105.73L602.94 109.27L597.72 123.1H569.49L564.25 109.27L562.91 105.73L562.1 103.58L560.76 100.05L571.18 84.8601L565.78 74.8501H601.44L596.01 84.8601L606.43 100.05Z" fill="#DBDBDB"/>
<path d="M606.43 100.05L605.1 103.58H562.1L560.76 100.05H606.43Z" fill="#A6A6A6"/>
<path d="M604.28 105.73L602.94 109.27H564.25L562.91 105.73H604.28Z" fill="#A6A6A6"/>
<path d="M55.8199 392.63L135.62 392.39L215.41 392.3L375 392.14L534.59 392.3L614.38 392.39L694.18 392.63L614.38 392.88L534.59 392.97L375 393.13L215.41 392.97L135.62 392.88L55.8199 392.63Z" fill="#263238"/>
<path d="M366.34 392.61H489L464.55 250.34H372.82L366.34 392.61Z" fill="#DBDBDB"/>
<path d="M366.34 392.61H377.1L383.13 250.34H372.82L366.34 392.61Z" fill="#A6A6A6"/>
<path d="M472.92 278.23C486.8 309.23 520.34 360.68 535.35 347.93C557.8 328.87 573 286.71 579 269.66C582.37 260.11 533.72 244.13 530.74 252.8C526.5 265.12 519.85 290.87 516 294.52C514 296.43 498.06 274.06 486 263.45C468.59 248.16 468.49 268.33 472.92 278.23Z" fill="#AD6359"/>
<path d="M591.15 255.31C586.82 265.05 570.15 281.52 564.61 283.95C559.07 286.38 529.81 259.95 530.42 253.73C531.03 247.51 548.49 214.93 558.16 209.93C567.83 204.93 595.64 245.21 591.15 255.31Z" fill="#AD6359"/>
<path d="M532.71 246.89C532.71 246.89 533.41 233.03 529.91 221.31C526.97 211.46 521.5 197.17 526.73 195.39C537.49 191.74 551.13 227.39 551.13 227.39C551.13 227.39 554.63 244.09 544.3 248.65C537.82 251.51 532.71 246.89 532.71 246.89Z" fill="#AD6359"/>
<path d="M544.84 220.6C545.54 226.21 551.75 222.17 551.75 222.17C551.75 222.17 544.22 230.17 547.18 235.64C550.06 240.93 557.38 235.78 557.91 235.42C557.51 235.85 550.79 243.35 554.34 248.57C558.03 253.99 564.49 247.57 564.91 247.15C564.66 247.66 561.52 254.57 565.12 257.93C571.3 263.68 579.82 246.24 586.38 244.29C586.38 244.29 590.96 255.02 591.15 255.29C591.15 255.29 599.6 238.85 596.48 230.15C596.043 228.879 595.185 227.795 594.049 227.077C592.913 226.359 591.566 226.049 590.23 226.2C590.23 226.2 593.54 221.2 590.88 217C589.5 214.85 584.88 215.13 584.88 215.13C584.88 215.13 587.36 211.02 584.76 207.44C582.69 204.57 578.34 205.3 578.34 205.3C578.34 205.3 578.89 200.24 575.83 198C569.61 193.48 543.33 208.59 544.84 220.6Z" fill="#AD6359"/>
<path d="M577.59 205.33C577.68 205.28 577.59 205.15 577.54 205.18C567.68 208.04 557.73 214.18 551.39 222.35C551.18 222.62 551.52 223.07 551.81 222.82C560 215.67 567.75 210 577.59 205.33Z" fill="#263238"/>
<path d="M584.94 215C585.05 214.95 584.94 214.77 584.85 214.8C574.7 217.8 563.69 225.06 557.48 235.31C557.27 235.66 557.43 236.19 557.71 235.81C562.35 229.33 576.06 219.17 584.94 215Z" fill="#263238"/>
<path d="M564.72 248C571.05 238.4 579.82 231.79 589.81 226.3C589.93 226.23 589.81 226.06 589.7 226.09C584.08 227.44 578.08 231.6 573.7 235.24C569.555 238.533 566.348 242.857 564.4 247.78C564.31 248 564.59 248.22 564.72 248Z" fill="#263238"/>
<path d="M551.55 222.16C551.3 222.48 552.05 222.49 551.81 222.82C550.81 224.2 545.46 233.05 547.91 235.82C549.91 238.03 554.2 236.91 555.7 235.82L559.45 233.11L556.87 237C555.709 238.704 554.831 240.585 554.27 242.57C553.959 243.474 553.844 244.433 553.932 245.385C554.02 246.336 554.309 247.258 554.78 248.09C555.221 248.86 555.915 249.455 556.744 249.774C557.573 250.093 558.486 250.116 559.33 249.84C561.211 249.193 562.895 248.074 564.22 246.59L568.02 242.59L565.74 247.59C565.103 248.973 564.642 250.431 564.37 251.93C564.064 253.339 564.179 254.806 564.7 256.15C564.958 256.742 565.375 257.25 565.904 257.619C566.434 257.988 567.056 258.203 567.7 258.24C569.16 258.092 570.548 257.53 571.7 256.62C574.225 254.691 576.595 252.568 578.79 250.27C579.94 249.15 581.09 248.02 582.3 246.94C583.437 245.803 584.799 244.917 586.3 244.34C584.874 245.062 583.603 246.058 582.56 247.27C581.45 248.42 580.39 249.62 579.33 250.83C577.247 253.328 574.937 255.628 572.43 257.7C571.086 258.841 569.439 259.567 567.69 259.79C566.726 259.799 565.779 259.529 564.965 259.013C564.151 258.497 563.503 257.756 563.1 256.88C562.4 255.23 562.209 253.409 562.55 251.65C562.819 249.977 563.306 248.346 564 246.8L565.52 247.8C563.98 249.578 562.001 250.923 559.78 251.7C558.536 252.098 557.192 252.048 555.98 251.56C554.809 251.047 553.819 250.193 553.14 249.11C552.545 248.055 552.18 246.885 552.069 245.679C551.959 244.472 552.106 243.256 552.5 242.11C553.139 239.936 554.136 237.885 555.45 236.04L556.62 237.18C554.62 238.48 549.98 240.26 546.49 237.23C542.63 232.54 550.08 223.68 551.55 222.16Z" fill="#263238"/>
<path d="M551.75 222.17C550.669 222.601 549.53 222.868 548.37 222.96C547.904 223.008 547.434 222.931 547.009 222.735C546.583 222.54 546.217 222.234 545.95 221.85C545.479 220.925 545.288 219.882 545.4 218.85C545.46 217.71 545.58 216.52 545.76 215.29C544.998 216.295 544.46 217.451 544.18 218.68C543.988 219.344 543.928 220.038 544.006 220.725C544.083 221.411 544.295 222.076 544.63 222.68C545.068 223.308 545.685 223.789 546.4 224.06C547.089 224.285 547.826 224.313 548.53 224.14C549.784 223.839 550.911 223.15 551.75 222.17Z" fill="#263238"/>
<path d="M527.78 253.73L578.42 289C578.42 289 548.17 351.67 529.48 351.5C510.79 351.33 483.79 304.39 474.48 284.1C465.17 263.81 470.72 246.62 489.56 265.1C508.4 283.58 515.15 291.2 515.76 290.95C516.9 290.49 527.78 253.73 527.78 253.73Z" fill="url(#paint0_linear_2073_8274)"/>
<path d="M578.42 289C578.42 289 557.42 332.46 539.63 346.9C536.06 349.8 532.63 351.53 529.48 351.49C510.79 351.33 483.79 304.38 474.43 284.1C468.64 271.54 468.59 260.17 473.85 257.72C477.1 256.21 482.35 258.07 489.52 265.13C508.52 283.74 515.1 291.22 515.72 290.97C516.9 290.49 527.79 253.74 527.79 253.74L578.42 289Z" fill="url(#paint1_linear_2073_8274)"/>
<path d="M547.08 339.5C546.46 340.22 545.83 340.92 545.2 341.6C539.501 345.188 533.108 347.529 526.44 348.47C524.601 348.673 522.75 348.747 520.9 348.69L519.75 347.97C521.957 348.103 524.172 348.046 526.37 347.8C529.001 347.512 531.589 346.915 534.08 346.02L535.97 345.4L537.8 344.63C538.41 344.37 539.04 344.15 539.63 343.85L541.4 342.95C543.369 341.929 545.267 340.777 547.08 339.5ZM508.66 284.29C502.882 286.918 497.611 290.544 493.09 295C490.158 297.889 487.447 300.994 484.98 304.29C485.1 304.51 485.23 304.74 485.37 304.96C487.866 301.609 490.618 298.456 493.6 295.53C497.389 291.808 501.705 288.664 506.41 286.2L508.18 285.3C508.505 285.135 508.839 284.988 509.18 284.86L508.66 284.29ZM552.4 287.48C547.598 285.129 542.573 283.263 537.4 281.91C536.86 281.78 536.32 281.65 535.77 281.54C535.42 281.46 535.06 281.38 534.71 281.32C530.339 280.404 525.852 280.175 521.41 280.64C520.76 280.73 520.12 280.83 519.47 280.95C519.4 281.18 519.32 281.42 519.25 281.64C519.99 281.51 520.74 281.4 521.49 281.31C525.613 280.874 529.777 281.046 533.85 281.82L534.94 282.02C535.71 282.18 536.48 282.35 537.25 282.54C542.379 283.862 547.363 285.691 552.13 288C559.27 291.502 566.195 295.426 572.87 299.75C572.97 299.58 573.06 299.41 573.14 299.25C566.467 294.918 559.541 290.987 552.4 287.48ZM557.65 274.54C549.543 274.875 541.643 277.203 534.65 281.32L533.79 281.82C532.024 282.878 530.318 284.033 528.68 285.28C520.11 291.8 513.27 300.18 506.76 308.61C503.5 312.84 500.3 317.1 496.92 321.22C496.68 321.52 496.43 321.81 496.18 322.11L496.56 322.66C496.85 322.32 497.14 321.98 497.42 321.66C500.82 317.53 504.03 313.27 507.3 309.05C513.81 300.65 520.64 292.33 529.12 285.9C530.958 284.498 532.882 283.212 534.88 282.05C535.15 281.88 535.43 281.72 535.71 281.57C538.039 280.263 540.466 279.139 542.97 278.21L544.84 277.53C545.46 277.31 546.11 277.16 546.75 276.97L548.66 276.44L550.66 276.05C553.242 275.468 555.884 275.192 558.53 275.23H558.65L557.65 274.54ZM495.5 271.05C492.006 272.603 488.355 273.773 484.61 274.54L482.66 274.92C482.01 275.04 481.35 275.08 480.66 275.17L478.66 275.4L476.66 275.48C474.834 275.607 473 275.573 471.18 275.38L471.36 276.04C479.813 276.657 488.285 275.13 495.99 271.6C495.88 271.41 495.69 271.23 495.5 271.05ZM481.08 258.63C477.539 261.035 473.866 263.242 470.08 265.24C470.08 265.51 470.08 265.78 470.08 266.06C474.12 263.947 478.027 261.589 481.78 259C481.54 258.87 481.31 258.74 481.08 258.63Z" fill="white"/>
<path d="M566.45 294.88C565.11 293.77 563.76 292.69 562.4 291.61C559.64 289.43 556.88 287.26 554.12 285.1C548.62 280.81 543 276.67 537.34 272.6C534.13 270.28 530.97 267.84 527.66 265.67C527.644 265.658 527.626 265.649 527.607 265.645C527.588 265.64 527.568 265.639 527.549 265.641C527.529 265.644 527.51 265.651 527.494 265.661C527.477 265.671 527.462 265.684 527.45 265.7C527.438 265.716 527.429 265.734 527.425 265.753C527.42 265.772 527.419 265.792 527.421 265.811C527.424 265.831 527.431 265.849 527.441 265.866C527.451 265.883 527.464 265.898 527.48 265.91C530.11 268.23 532.93 270.35 535.66 272.56C538.39 274.77 541.1 276.99 543.87 279.15C549.377 283.43 554.95 287.627 560.59 291.74C562.16 292.9 563.71 294.12 565.34 295.21C566.17 295.77 566.96 296.39 567.8 296.93C568.64 297.47 569.54 297.93 570.36 298.54C570.379 298.551 570.401 298.554 570.422 298.55C570.443 298.546 570.462 298.534 570.475 298.517C570.489 298.5 570.495 298.479 570.494 298.458C570.493 298.436 570.485 298.416 570.47 298.4C569.1 297.25 567.82 296 566.45 294.88Z" fill="#263238"/>
<path d="M516.15 289.83C514.217 295.054 512.627 300.399 511.39 305.83C510.73 308.51 510.21 311.22 509.7 313.92C509.16 316.603 508.799 319.319 508.62 322.05C508.62 322.15 508.77 322.15 508.79 322.05C509.63 319.44 510.25 316.72 510.85 314.05C511.45 311.38 512.13 308.69 512.73 306.05C513.94 300.67 515.36 295.34 516.41 289.93C516.417 289.913 516.42 289.895 516.419 289.876C516.419 289.858 516.415 289.84 516.407 289.823C516.4 289.807 516.389 289.792 516.376 289.779C516.363 289.766 516.347 289.757 516.33 289.75C516.313 289.743 516.295 289.74 516.276 289.741C516.258 289.741 516.24 289.745 516.223 289.753C516.207 289.76 516.192 289.771 516.179 289.784C516.166 289.797 516.157 289.813 516.15 289.83Z" fill="#263238"/>
<path opacity="0.1" d="M539.63 346.9C536.06 349.8 532.63 351.53 529.48 351.49C510.79 351.33 483.79 304.38 474.43 284.1C468.64 271.54 468.59 260.17 473.85 257.72L539.63 346.9Z" fill="black"/>
<path d="M510.64 392.61H389.07C387.73 390.15 407.65 283.67 448.65 253.68C457.75 247.03 473.89 251.31 478.37 257.78C500.93 290.29 510.64 392.61 510.64 392.61Z" fill="url(#paint2_linear_2073_8274)"/>
<path d="M504.32 345.34C501.285 344.265 498.311 343.027 495.41 341.63C491.34 339.68 487.41 337.52 483.5 335.24L482.93 334.9C478.93 332.53 474.93 330.02 471.01 327.49L470.45 327.13L467.79 325.41C458.79 319.64 449.93 313.7 440.32 309.08C435.57 306.705 430.526 304.969 425.32 303.92C422.707 303.454 420.048 303.306 417.4 303.48C416.74 303.48 416.09 303.62 415.4 303.71C414.95 303.8 414.5 303.86 414.04 303.95C414.11 303.79 414.17 303.64 414.25 303.48C414.61 303.41 414.98 303.35 415.34 303.27C416 303.19 416.67 303.09 417.34 303.04C420.014 302.86 422.7 303.005 425.34 303.47C430.601 304.511 435.699 306.249 440.5 308.64C450.16 313.26 459.08 319.2 468.06 324.95L470.7 326.64L471.27 327C475.27 329.57 479.27 332.12 483.42 334.53L483.99 334.87C487.79 337.08 491.66 339.18 495.64 341.07C498.42 342.4 501.267 343.585 504.17 344.62L504.32 345.34ZM493.5 294.57L493.09 294.96C485.38 302.47 479.62 311.63 474.19 320.79C473.043 322.743 471.89 324.693 470.73 326.64C470.64 326.81 470.55 326.97 470.45 327.13C468.98 329.61 467.5 332.08 465.96 334.51C464.61 336.65 463.2 338.76 461.7 340.8C461.56 340.99 461.43 341.18 461.29 341.36C459.772 343.41 458.136 345.37 456.39 347.23C454.57 349.161 452.56 350.903 450.39 352.43L449.58 353C449.31 353.19 449.01 353.34 448.73 353.51L447.02 354.51C445.841 355.105 444.626 355.622 443.38 356.06C438.336 357.735 433.055 358.589 427.74 358.59C422.444 358.569 417.166 357.968 412 356.8C407 355.74 402.15 354.32 397.26 352.9C397.26 353.06 397.18 353.22 397.13 353.37C402.01 354.8 406.91 356.24 411.89 357.31C417.117 358.502 422.459 359.119 427.82 359.15C433.195 359.153 438.536 358.295 443.64 356.61C444.914 356.172 446.157 355.647 447.36 355.04L449.11 354.04C449.406 353.882 449.693 353.708 449.97 353.52L450.8 352.94C453.003 351.398 455.044 349.635 456.89 347.68C458.752 345.687 460.495 343.587 462.11 341.39C462.26 341.2 462.39 341.02 462.52 340.83C463.94 338.89 465.28 336.9 466.52 334.88C468.07 332.45 469.52 329.98 471.02 327.51L471.31 327.02L474.78 321.16C480.22 312.01 485.98 302.93 493.61 295.51L493.74 295.39C493.65 295.1 493.57 294.83 493.5 294.57ZM499.27 318.32C498.5 319.32 497.72 320.26 496.93 321.22C493.619 325.382 489.919 329.219 485.88 332.68C485.08 333.31 484.28 333.94 483.45 334.53L482.93 334.9C481.773 335.717 480.56 336.452 479.3 337.1L478.43 337.57C478.14 337.73 477.82 337.84 477.52 337.98L475.7 338.76C474.459 339.208 473.19 339.572 471.9 339.85C468.801 340.514 465.64 340.849 462.47 340.85H461.7C459.82 340.85 457.94 340.7 456.07 340.5C450.793 339.835 445.605 338.591 440.6 336.79C435.6 335.06 430.67 332.93 425.77 330.79C420.893 328.584 415.883 326.683 410.77 325.1C409.26 324.67 407.77 324.29 406.17 324.01L406.02 324.44C407.58 324.73 409.13 325.1 410.64 325.54C415.724 327.128 420.703 329.032 425.55 331.24C430.45 333.35 435.35 335.49 440.4 337.24C445.448 339.056 450.679 340.317 456 341C457.76 341.2 459.52 341.33 461.28 341.36C461.54 341.36 461.79 341.36 462.05 341.36C465.408 341.414 468.761 341.099 472.05 340.42C473.365 340.129 474.661 339.759 475.93 339.31L477.79 338.51C478.1 338.37 478.41 338.26 478.71 338.1L479.6 337.62C480.965 336.924 482.276 336.125 483.52 335.23L484.04 334.86C484.8 334.31 485.55 333.73 486.29 333.14C490.37 329.666 494.107 325.808 497.45 321.62C498.117 320.8 498.783 319.97 499.45 319.13C499.39 318.87 499.33 318.59 499.27 318.32ZM486.71 274.07C486.01 274.24 485.31 274.4 484.61 274.54L482.66 274.92C482.01 275.04 481.35 275.08 480.66 275.17L478.66 275.4L476.66 275.48C474.019 275.651 471.368 275.51 468.76 275.06C464.669 274.353 460.706 273.042 457 271.17L456 270.68C455.3 270.32 454.61 269.94 453.93 269.55C449.352 266.862 445.057 263.72 441.11 260.17L440.67 260.61C444.654 264.197 448.986 267.38 453.6 270.11C454.08 270.39 454.6 270.66 455.06 270.92L456.06 271.42C460.014 273.494 464.264 274.948 468.66 275.73C474.754 276.585 480.956 276.246 486.92 274.73C486.88 274.51 486.79 274.29 486.71 274.07ZM479.59 259.62C474.279 263.182 468.612 266.182 462.68 268.57C460.529 269.408 458.328 270.113 456.09 270.68L455.15 270.92C452.551 271.524 449.91 271.935 447.25 272.15L445.25 272.28C444.59 272.33 443.93 272.28 443.25 272.28H441.25L439.25 272.12C436.841 271.981 434.454 271.582 432.13 270.93C431.99 271.12 431.85 271.31 431.72 271.51C439.706 273.516 448.069 273.485 456.04 271.42L457.04 271.17C459.035 270.642 460.998 270.001 462.92 269.25C468.883 266.846 474.58 263.829 479.92 260.25L479.59 259.62ZM509.5 382.15C508.5 382.15 507.42 382.24 506.38 382.27H506.3L505.69 382.32C500.565 382.856 495.585 384.338 491 386.69C487.72 388.403 484.586 390.383 481.63 392.61H482.26C485.08 390.522 488.063 388.662 491.18 387.05C495.804 384.689 500.832 383.22 506 382.72H506.37H506.61C507.61 382.72 508.55 382.61 509.51 382.62C509.53 382.44 509.52 382.3 509.5 382.15ZM510.02 386.75C508.933 385.37 507.81 384.013 506.65 382.68C506.54 382.54 506.42 382.41 506.3 382.28L505.89 381.8C502.396 377.728 498.378 374.136 493.94 371.12C491.688 369.65 489.263 368.465 486.72 367.59C486.09 367.38 485.43 367.2 484.79 367.02C484.15 366.84 483.48 366.7 482.79 366.61C481.47 366.36 480.12 366.34 478.79 366.21C473.414 366.013 468.05 366.866 463 368.72C457.996 370.622 453.217 373.07 448.75 376.02C440.75 381.17 433.46 387.23 425.67 392.61H426C433.75 387.32 441 381.37 448.92 376.33C453.371 373.401 458.133 370.976 463.12 369.1C468.12 367.269 473.429 366.43 478.75 366.63C480.06 366.77 481.4 366.79 482.7 367.04C483.36 367.13 483.99 367.32 484.64 367.45C485.29 367.58 485.92 367.8 486.54 368.01C489.046 368.877 491.434 370.053 493.65 371.51C498.049 374.506 502.028 378.078 505.48 382.13C505.54 382.2 505.6 382.26 505.65 382.33L506 382.72C507.4 384.35 508.77 386.01 510.09 387.72C510.1 387.4 510.06 387.09 510 386.75H510.02Z" fill="white"/>
<path d="M432.51 266.73C407.76 295.36 374.4 345.93 388.03 357.11C410.44 375.49 475.89 386.11 490.91 387.89C497.39 388.67 510.37 346.31 506.04 340.83C501.71 335.35 432.51 331.48 432.04 327.23C431.77 324.82 442.28 303.86 449.04 278.15C456.81 248.51 439.48 258.66 432.51 266.73Z" fill="#AD6359"/>
<path d="M494.7 337.34C494.7 337.34 514.56 337.19 527.55 337.7C534.8 337.98 547.18 339.58 552.41 342.23C560.23 346.18 590.41 367.73 585.35 375.16C580.76 381.88 557.18 360.08 557.18 360.08C557.18 360.08 582.92 379.98 575.91 387.08C568.9 394.18 545.53 366 545.53 366C545.53 366 571.53 387 563.14 393.2C556.8 397.85 534.2 373.53 534.2 373.53C534.2 373.53 556.41 391.76 550.1 396.83C543.1 402.43 520.85 381.29 520.85 381.29C502.65 391.47 489.85 388.87 480.85 385.94C478.74 385.19 494.7 337.34 494.7 337.34Z" fill="#AD6359"/>
<path d="M548.72 352.63C551.83 354.86 554.99 357.09 557.89 359.63C560.79 362.17 563.6 364.72 566.26 367.48C572.77 374.24 575.79 379.48 575.56 379.18C570.32 371.99 560.08 362.9 557.18 360.4C554.28 357.9 551.51 355.27 548.62 352.78C548.55 352.67 548.65 352.58 548.72 352.63Z" fill="#263238"/>
<path d="M539.52 362.94C543.36 365.94 547.29 368.8 551 371.99C554.71 375.18 559.73 379.78 563.2 383.2C563.46 383.46 563.2 383.96 562.92 383.71C559.32 380.43 553.97 375.95 550.33 372.71C546.69 369.47 543.18 366.1 539.44 363.01C539.38 363 539.46 362.89 539.52 362.94Z" fill="#263238"/>
<path d="M530 370.36C536.11 374.67 541.42 380.1 546.5 385.55C546.76 385.82 546.5 385.86 546.18 385.6C540.79 380.45 536.59 376.37 529.85 370.6C529.77 370.48 529.9 370.27 530 370.36Z" fill="#263238"/>
<path d="M491.91 336.71C500.97 336.65 527.58 336.58 536.62 337.28C544.62 337.89 551.21 339.61 557.92 344.05C572.32 353.57 581.6 364.75 583.92 368.05C585.32 370.05 587.35 373.28 585.5 375.52C583.23 378.24 574.88 375.58 566.07 367.61C565.75 367.32 565.95 367.14 566.28 367.41C578.65 377.41 583.57 376.27 584.86 374.56C585.7 373.45 584.86 371.56 584.14 370.06C582.935 367.937 581.463 365.978 579.76 364.23C574.078 358.151 567.792 352.667 561 347.86C553.723 342.428 545.054 339.172 536 338.47C526.74 337.71 501.12 337.95 491.87 337.06C491.68 337 491.71 336.72 491.91 336.71Z" fill="#263238"/>
<path d="M577.38 383.08C576.87 380.61 575.09 378.35 573.68 376.31C571.967 373.743 570 371.354 567.81 369.18C567.72 369.09 567.55 369.18 567.64 369.32C569.506 371.501 571.239 373.792 572.83 376.18C573.676 377.494 574.444 378.856 575.13 380.26C575.78 381.61 576.55 383.17 576.21 384.71C575.57 387.65 571.83 387.58 569.62 386.79C568.188 386.251 566.809 385.582 565.5 384.79C563.717 383.654 562.025 382.38 560.44 380.98C560.31 380.86 559.95 380.91 560.09 381.04C563.39 384.18 569.64 390.71 574.74 388.32C575.719 387.887 576.517 387.128 576.999 386.173C577.48 385.217 577.615 384.124 577.38 383.08Z" fill="#263238"/>
<path d="M495 334.77L471.21 388.77C471.21 388.77 388.07 370 383.25 354.22C378.43 338.44 404.48 296.22 427.99 269.86C451.11 243.96 454.53 261.53 448.78 281.56C443.03 301.59 433.6 324.68 434.65 326.41C435.7 328.14 495 334.77 495 334.77Z" fill="url(#paint3_linear_2073_8274)"/>
<path d="M440 308.4C439.94 308.55 439.89 308.71 439.83 308.86C435.212 306.588 430.317 304.928 425.27 303.92C422.657 303.454 419.998 303.306 417.35 303.48C416.69 303.48 416.04 303.62 415.35 303.71C414.66 303.8 414.05 303.91 413.41 304.09C412.11 304.37 410.88 304.87 409.61 305.26C404.71 307.125 400.215 309.915 396.37 313.48L397 312.39C400.667 309.152 404.888 306.601 409.46 304.86C410.74 304.46 411.99 303.95 413.31 303.67C413.96 303.49 414.63 303.41 415.31 303.27C415.99 303.13 416.64 303.09 417.31 303.04C419.984 302.86 422.67 303.005 425.31 303.47C430.4 304.468 435.339 306.125 440 308.4ZM484 334.87L483.43 334.53L481.15 333.18L479.77 333.02C480.77 333.65 481.86 334.29 482.91 334.9L483.48 335.24C486.48 336.99 489.48 338.67 492.56 340.24L492.8 339.69C489.84 338.16 486.91 336.55 484 334.87ZM467.77 331.56C467.17 332.56 466.56 333.56 465.94 334.51C464.59 336.65 463.18 338.76 461.68 340.8C461.54 340.99 461.41 341.18 461.27 341.36C459.752 343.41 458.116 345.37 456.37 347.23C454.55 349.161 452.54 350.903 450.37 352.43L449.56 353C449.29 353.19 448.99 353.34 448.71 353.51L447 354.51C445.821 355.105 444.605 355.622 443.36 356.06C438.316 357.735 433.035 358.589 427.72 358.59C422.43 358.567 417.159 357.967 412 356.8C406.79 355.69 401.68 354.18 396.55 352.69C392 351.37 387.42 350.04 382.74 349.17C382.74 349.33 382.74 349.49 382.74 349.64C387.37 350.51 391.9 351.85 396.43 353.16C401.55 354.66 406.68 356.16 411.91 357.31C417.137 358.502 422.479 359.119 427.84 359.15C433.215 359.153 438.556 358.295 443.66 356.61C444.934 356.172 446.177 355.647 447.38 355.04L449.13 354.04C449.426 353.882 449.713 353.709 449.99 353.52L450.82 352.94C453.023 351.398 455.064 349.635 456.91 347.68C458.772 345.687 460.515 343.587 462.13 341.39C462.28 341.2 462.41 341.02 462.54 340.83C463.96 338.89 465.3 336.9 466.54 334.88C467.22 333.82 467.88 332.74 468.54 331.67L467.77 331.56ZM484.69 333.56C484.28 333.88 483.86 334.2 483.43 334.5L482.91 334.87C481.753 335.687 480.54 336.422 479.28 337.07L478.41 337.54C478.12 337.7 477.8 337.81 477.5 337.95L475.68 338.73C474.439 339.178 473.17 339.542 471.88 339.82C468.781 340.484 465.62 340.819 462.45 340.82H461.68C459.8 340.82 457.92 340.67 456.05 340.47C450.773 339.806 445.585 338.561 440.58 336.76C435.58 335.03 430.65 332.9 425.75 330.76C420.873 328.554 415.863 326.653 410.75 325.07C405.62 323.6 400.15 322.8 394.84 323.84C393.151 324.18 391.516 324.748 389.98 325.53C389.88 325.73 389.78 325.94 389.69 326.14C391.333 325.264 393.095 324.631 394.92 324.26C400.14 323.26 405.54 324.04 410.62 325.51C415.704 327.098 420.683 329.002 425.53 331.21C430.43 333.32 435.33 335.46 440.38 337.21C445.433 339.038 450.671 340.309 456 341C457.76 341.2 459.52 341.33 461.28 341.36C461.54 341.36 461.79 341.36 462.05 341.36C465.408 341.414 468.761 341.099 472.05 340.42C473.365 340.129 474.661 339.759 475.93 339.31L477.79 338.51C478.1 338.37 478.41 338.26 478.71 338.1L479.6 337.62C480.965 336.924 482.276 336.125 483.52 335.23L484.04 334.86C484.56 334.48 485.04 334.08 485.6 333.68L484.69 333.56ZM441.15 260.12C440.72 259.74 440.3 259.37 439.88 258.98L439.34 259.33L440.74 260.58C443.996 263.495 447.473 266.153 451.14 268.53C451.14 268.28 451.14 268.03 451.14 267.79C447.63 265.497 444.297 262.943 441.17 260.15L441.15 260.12ZM447.23 272.12L445.23 272.25C444.57 272.3 443.91 272.25 443.23 272.25H441.23L439.23 272.09C436.586 271.932 433.968 271.469 431.43 270.71C430.32 270.38 429.22 270 428.14 269.56L427.9 269.83L427.67 270.09C428.836 270.579 430.028 271.003 431.24 271.36C437.574 273.051 444.188 273.419 450.67 272.44C450.67 272.19 450.74 271.95 450.78 271.7C449.67 271.92 448.46 272.06 447.25 272.15L447.23 272.12ZM478.79 366.18C473.412 365.993 468.048 366.856 463 368.72C457.996 370.622 453.217 373.071 448.75 376.02C446.25 377.64 443.81 379.34 441.4 381.09L441.79 381.2C444.13 379.51 446.5 377.88 448.93 376.33C453.381 373.401 458.143 370.976 463.13 369.1C468.13 367.27 473.439 366.431 478.76 366.63C479.45 366.7 480.14 366.74 480.83 366.8L481.02 366.38C480.31 366.32 479.55 366.28 478.81 366.21L478.79 366.18Z" fill="white"/>
<path d="M461.67 379.84C462.48 378.3 463.26 376.76 464.04 375.21C465.607 372.07 467.167 368.923 468.72 365.77C471.8 359.51 474.72 353.17 477.53 346.77C479.14 343.15 480.89 339.57 482.34 335.88C482.357 335.843 482.359 335.8 482.345 335.762C482.331 335.724 482.302 335.692 482.265 335.675C482.228 335.658 482.185 335.656 482.147 335.67C482.108 335.684 482.077 335.713 482.06 335.75C480.33 338.8 478.83 341.99 477.23 345.12C475.63 348.25 474 351.35 472.46 354.51C469.393 360.77 466.42 367.08 463.54 373.44C462.73 375.22 461.85 376.98 461.12 378.8C460.74 379.73 460.3 380.63 459.93 381.57C459.56 382.51 459.28 383.47 458.93 384.4C458.925 384.41 458.923 384.421 458.922 384.431C458.922 384.442 458.923 384.453 458.927 384.463C458.931 384.474 458.937 384.483 458.944 384.491C458.951 384.499 458.96 384.505 458.97 384.51C458.98 384.515 458.99 384.517 459.001 384.518C459.012 384.518 459.023 384.517 459.033 384.513C459.043 384.509 459.053 384.503 459.061 384.496C459.069 384.489 459.075 384.48 459.08 384.47C459.89 382.92 460.84 381.42 461.67 379.84Z" fill="#263238"/>
<path d="M473 385.06L471.33 388.84L471.28 388.96H471.12C463.25 387.5 455.43 385.75 447.66 383.8C439.89 381.85 432.18 379.64 424.55 377.18C416.893 374.76 409.383 371.895 402.06 368.6C398.385 366.947 394.836 365.029 391.44 362.86C389.745 361.755 388.144 360.514 386.65 359.15C385.11 357.83 383.93 356.14 383.22 354.24C384.104 356.025 385.396 357.576 386.99 358.77C388.568 359.983 390.244 361.063 392 362C395.473 363.931 399.06 365.651 402.74 367.15C410.09 370.2 417.64 372.8 425.23 375.24C432.82 377.68 440.48 379.95 448.16 382.13C455.84 384.31 463.55 386.47 471.27 388.54L471.07 388.64L473 385.06Z" fill="#263238"/>
<path d="M494.05 336.87L494.88 334.72L494.97 334.87C486.63 334.32 478.3 333.65 469.97 332.78C461.64 331.91 453.36 330.96 445.08 329.72C443.01 329.4 440.94 329.06 438.87 328.66C437.87 328.45 436.8 328.25 435.73 327.95C435.46 327.87 435.2 327.79 434.91 327.68C434.744 327.626 434.583 327.555 434.43 327.47C434.313 327.407 434.203 327.334 434.1 327.25C433.992 327.16 433.901 327.051 433.83 326.93C433.789 326.852 433.752 326.772 433.72 326.69C433.714 326.65 433.714 326.61 433.72 326.57C433.68 326.189 433.7 325.804 433.78 325.43C433.83 325.16 433.88 324.87 433.95 324.62C435.01 320.47 436.35 316.55 437.71 312.62C440.43 304.71 443.39 296.9 446.51 289.14C444.1 297.14 441.63 305.14 439.17 313.14C437.99 317.14 436.69 321.14 435.78 325.14C435.72 325.39 435.69 325.62 435.64 325.86C435.59 326.1 435.64 326.38 435.59 326.28C435.579 326.227 435.558 326.176 435.53 326.13C435.53 326.03 435.35 325.93 435.39 325.95C435.43 325.97 435.34 325.95 435.39 325.95L435.64 326.05L436.3 326.26C437.3 326.52 438.3 326.71 439.3 326.91C441.3 327.28 443.39 327.6 445.44 327.91C449.56 328.53 453.687 329.113 457.82 329.66L470.23 331.33C478.5 332.43 486.77 333.61 495.04 334.82H495.19L495.13 334.95L494.05 336.87Z" fill="#263238"/>
<path d="M447.4 294.26C446.813 295.671 446.072 297.012 445.19 298.26C444.361 299.537 443.35 300.685 442.19 301.67C442.95 300.34 443.76 299.08 444.62 297.83C445.455 296.571 446.384 295.378 447.4 294.26Z" fill="#263238"/>
<path d="M471.63 275.79C464.57 277.79 451.85 267.46 446.63 258.85C446.27 258.26 447.69 233.94 447.47 229.09C447.47 228.09 478.21 235.09 478.21 235.09C478.21 235.09 475.68 245.39 476.12 253.84C476.15 254.56 478.44 273.85 471.63 275.79Z" fill="#AD6359"/>
<path d="M447 244.32C461.39 254.48 475.41 250.58 476 250.4C476.237 245.245 476.95 240.123 478.13 235.1C478.13 235.1 447.33 228.1 447.38 229.1C447.56 231.37 447.31 237.93 447 244.32Z" fill="#263238"/>
<path d="M478.06 215.06C478.85 222.24 484.6 227.5 490.89 226.8C497.18 226.1 501.65 219.73 500.89 212.56C500.13 205.39 494.36 200.12 488.06 200.82C481.76 201.52 477.27 207.89 478.06 215.06Z" fill="#455A64"/>
<path d="M474.42 215.92C475.3 223.92 481.69 229.75 488.69 228.98C495.69 228.21 500.69 221.12 499.78 213.13C498.87 205.14 492.52 199.3 485.51 200.07C478.5 200.84 473.54 207.94 474.42 215.92Z" fill="#C7C7C7"/>
<path d="M443.21 192.55C439.85 203.33 445.36 234.55 452.99 241.55C464.06 251.7 482.28 252.77 490.92 239.45C499.3 226.53 491.4 185.98 482.86 179.61C470.29 170.21 448.17 176.64 443.21 192.55Z" fill="#AD6359"/>
<path d="M469.15 212.15C469.15 212.08 469.01 212.28 469.03 212.37C469.49 214.45 469.68 216.92 467.92 217.98C467.86 217.98 467.92 218.12 467.92 218.09C470.21 217.32 469.93 214.05 469.15 212.15Z" fill="#263238"/>
<path d="M466.86 210.32C463.44 210.71 464.47 217.53 467.64 217.17C470.81 216.81 469.73 210 466.86 210.32Z" fill="#263238"/>
<path d="M481.29 210.51C481.29 210.43 481.47 210.59 481.48 210.68C481.73 212.8 482.38 215.18 484.39 215.6C484.45 215.6 484.47 215.72 484.39 215.72C482 215.74 481.19 212.56 481.29 210.51Z" fill="#263238"/>
<path d="M482.84 208C486.2 207.23 487.49 214 484.38 214.72C481.27 215.44 480 208.67 482.84 208Z" fill="#263238"/>
<path d="M463.7 207.61C464.558 207.214 465.392 206.77 466.2 206.28C467.145 205.935 467.949 205.288 468.49 204.44C468.607 204.14 468.621 203.809 468.531 203.5C468.441 203.191 468.25 202.92 467.99 202.73C467.421 202.432 466.782 202.291 466.14 202.322C465.499 202.354 464.877 202.557 464.34 202.91C463.135 203.453 462.175 204.427 461.65 205.64C461.545 205.923 461.525 206.231 461.592 206.525C461.659 206.82 461.811 207.088 462.029 207.297C462.247 207.506 462.521 207.648 462.818 207.703C463.115 207.759 463.421 207.726 463.7 207.61Z" fill="#263238"/>
<path d="M485 204.19C484.056 204.143 483.114 204.047 482.18 203.9C481.176 203.938 480.188 203.643 479.37 203.06C479.145 202.827 479.005 202.525 478.97 202.203C478.936 201.88 479.01 201.556 479.18 201.28C479.599 200.791 480.139 200.422 480.747 200.209C481.355 199.997 482.008 199.949 482.64 200.07C483.96 200.125 485.212 200.67 486.15 201.6C486.351 201.823 486.484 202.099 486.531 202.395C486.579 202.691 486.539 202.995 486.417 203.269C486.296 203.543 486.097 203.776 485.845 203.94C485.594 204.103 485.3 204.19 485 204.19Z" fill="#263238"/>
<path d="M470.31 231.94C470.89 232.36 471.5 232.94 472.31 232.94C473.093 232.808 473.839 232.511 474.5 232.07C474.512 232.055 474.529 232.046 474.548 232.044C474.567 232.042 474.585 232.048 474.6 232.06C474.615 232.072 474.624 232.089 474.626 232.108C474.628 232.127 474.622 232.145 474.61 232.16C474.373 232.623 474.014 233.012 473.571 233.285C473.129 233.558 472.62 233.705 472.1 233.71C471.653 233.665 471.23 233.487 470.885 233.201C470.539 232.914 470.287 232.531 470.16 232.1C470.07 232 470.22 231.88 470.31 231.94Z" fill="#263238"/>
<path d="M471.57 225.29C472.232 226.043 473.043 226.652 473.952 227.077C474.861 227.502 475.847 227.734 476.85 227.76C477.728 227.795 478.607 227.704 479.46 227.49C479.624 227.46 479.785 227.413 479.94 227.35C480.092 227.311 480.243 227.264 480.39 227.21C480.5 227.173 480.594 227.101 480.659 227.006C480.724 226.91 480.756 226.796 480.75 226.68C480.744 226.608 480.727 226.537 480.7 226.47V226.29C480.49 224.66 479.96 222.21 479.96 222.21C480.6 222.42 483.84 223.32 483.66 222.48C482.18 215.48 480.53 207.76 477.58 201.15C477.56 201.106 477.525 201.072 477.481 201.052C477.438 201.032 477.389 201.028 477.343 201.041C477.297 201.055 477.257 201.084 477.231 201.124C477.205 201.164 477.194 201.213 477.2 201.26C478.36 208.01 480.7 214.51 481.98 221.26C480.827 220.922 479.632 220.75 478.43 220.75C478.21 220.85 479.54 225.46 479.57 226.2C479.576 226.226 479.576 226.254 479.57 226.28C476.89 227.04 474.71 226.53 471.78 225.1C471.56 225 471.42 225.14 471.57 225.29Z" fill="#263238"/>
<path d="M478.37 226.81C477.659 228.104 476.626 229.193 475.37 229.97C474.669 230.369 473.863 230.544 473.06 230.47C471.31 230.28 471.06 228.74 471.14 227.37C471.207 226.642 471.358 225.923 471.59 225.23C473.624 226.465 475.999 227.018 478.37 226.81Z" fill="#263238"/>
<path d="M475.36 230C474.659 230.399 473.853 230.574 473.05 230.5C471.3 230.31 471.05 228.77 471.13 227.4C473 227.28 474.94 228.24 475.36 230Z" fill="#FF99BA"/>
<path opacity="0.2" d="M448.33 203.64C447.1 206.74 444.57 214.02 443.13 214.53C441.76 204.41 441.71 195.23 444.22 189.59C445.258 187.26 446.715 185.142 448.52 183.34C448.73 186.05 449.64 200.4 448.33 203.64Z" fill="#263238"/>
<path d="M475.38 189.17C474.524 190.654 473.301 191.893 471.828 192.769C470.356 193.644 468.683 194.127 466.97 194.17C465.227 194.216 463.5 193.815 461.955 193.007C460.41 192.198 459.097 191.008 458.14 189.55C458.135 189.541 458.128 189.533 458.119 189.526C458.111 189.52 458.101 189.515 458.091 189.512C458.081 189.509 458.07 189.509 458.06 189.51C458.049 189.511 458.039 189.515 458.03 189.52C458.021 189.525 458.013 189.532 458.006 189.541C458 189.549 457.995 189.559 457.992 189.569C457.989 189.579 457.989 189.59 457.99 189.6C457.991 189.611 457.995 189.621 458 189.63C458.87 191.258 460.168 192.616 461.754 193.559C463.341 194.502 465.155 194.994 467 194.98C468.808 194.878 470.557 194.302 472.072 193.311C473.586 192.319 474.814 190.946 475.63 189.33C475.651 189.297 475.658 189.257 475.65 189.218C475.642 189.18 475.618 189.146 475.585 189.125C475.552 189.104 475.512 189.097 475.473 189.105C475.435 189.113 475.401 189.137 475.38 189.17Z" fill="#263238"/>
<path d="M496.24 173.08C494.799 170.423 492.465 168.361 489.65 167.26C485.75 165.72 481.84 166.75 477.97 167.86C477.949 167.86 477.928 167.868 477.913 167.883C477.898 167.898 477.89 167.919 477.89 167.94C477.89 167.961 477.898 167.982 477.913 167.997C477.928 168.012 477.949 168.02 477.97 168.02C481.26 167.09 484.66 166.34 488.02 167.36C490.801 168.192 493.21 169.958 494.84 172.36C496.43 174.847 497.071 177.824 496.647 180.745C496.223 183.666 494.762 186.338 492.53 188.27C491.215 189.349 489.693 190.148 488.057 190.618C486.422 191.087 484.708 191.217 483.02 191C482.89 191 482.83 191.18 482.97 191.2C485.267 191.59 487.627 191.331 489.786 190.454C491.944 189.576 493.815 188.114 495.188 186.232C496.561 184.349 497.383 182.121 497.56 179.798C497.737 177.475 497.262 175.149 496.19 173.08H496.24Z" fill="#263238"/>
<path d="M442.3 198.78C442.3 198.78 435.07 189.49 438.57 182.78C440.57 178.97 449.18 177.92 449.18 177.92C449.18 177.92 451.18 173.51 457.99 170.65C464.8 167.79 473.99 169.47 473.99 169.47C473.99 169.47 480.1 164.39 487.1 166.91C496.86 170.43 498.1 184.14 489.94 190.04C484.2 194.19 474.72 190.13 474.72 190.13C473.92 190.38 466.42 196.9 458.78 190.53C458.78 190.53 454.43 196.01 449.24 193.61C448.749 195.077 447.821 196.359 446.58 197.283C445.34 198.207 443.846 198.729 442.3 198.78Z" fill="#263238"/>
<path d="M449.72 218C449.72 218 442.53 208 437.99 210.59C433.45 213.18 438.99 227.71 444.35 229.59C445.023 229.886 445.749 230.043 446.484 230.052C447.22 230.061 447.949 229.921 448.629 229.64C449.309 229.36 449.925 228.946 450.441 228.421C450.956 227.897 451.361 227.274 451.63 226.59L449.72 218Z" fill="#AD6359"/>
<path d="M439.67 214.73C439.58 214.73 439.57 214.84 439.67 214.87C443.46 216.35 445.49 219.81 446.93 223.41C445.79 222.03 444.26 221.29 442.41 222.65C442.31 222.72 442.41 222.87 442.51 222.85C443.169 222.64 443.876 222.638 444.536 222.843C445.196 223.049 445.777 223.453 446.2 224C446.911 224.931 447.518 225.937 448.01 227C448.19 227.33 448.79 227.14 448.66 226.76V226.67C448.66 221.81 444.83 215.14 439.67 214.73Z" fill="#263238"/>
<path d="M443.73 211C443.73 211 439.84 195.5 442.87 186C446.24 175.44 458.95 165.1 473.97 169.49C473.97 169.49 457.3 171.64 449.2 185.57C445.48 191.97 449.05 210.45 449.05 210.45L443.73 211Z" fill="#C7C7C7"/>
<path d="M459.87 216.22C461.39 224.22 456.96 231.76 449.96 233.1C442.96 234.44 436.04 229.1 434.51 221.1C432.98 213.1 437.42 205.56 444.42 204.22C451.42 202.88 458.34 208.24 459.87 216.22Z" fill="#C7C7C7"/>
<path d="M456.09 216.48C457.46 223.65 453.47 230.48 447.18 231.65C440.89 232.82 434.67 228 433.3 220.84C431.93 213.68 435.91 206.84 442.2 205.67C448.49 204.5 454.71 209.3 456.09 216.48Z" fill="#455A64"/>
<path d="M59.2999 392.61H181.96L157.5 250.34H65.7799L59.2999 392.61Z" fill="#DBDBDB"/>
<path d="M59.2999 392.61H70.0499L76.0899 250.34H65.7799L59.2999 392.61Z" fill="#A6A6A6"/>
<path d="M132 188.29C120.61 199.62 117.34 218.29 117.34 218.29C117.34 218.29 106.42 237.08 109.47 247.29C110.277 250.185 111.774 252.841 113.832 255.03C115.891 257.22 118.45 258.877 121.29 259.86L120.21 254.22C120.21 254.22 123.87 261.47 136.1 264.39C148.33 267.31 164.51 263.55 172.93 259.29C177.92 256.792 182.179 253.043 185.29 248.41L182.14 256.61C182.14 256.61 194.01 256.19 201.06 243.56C208.11 230.93 187.86 212.78 186.14 208.87C184.42 204.96 182.24 176.47 152.27 181.38C152.31 181.31 139.88 180.49 132 188.29Z" fill="#263238"/>
<path d="M117 259.05C113.88 256.72 110.8 254.05 109.08 250.75C107.204 247.33 106.538 243.376 107.19 239.53C108.02 234.92 110.45 230.85 112.81 226.88C115.17 222.91 118.01 218.88 120.38 214.71C120.51 214.48 120.16 214.29 120 214.47C117.337 217.597 114.853 220.873 112.56 224.28C110.214 227.396 108.24 230.776 106.68 234.35C105.221 237.641 104.742 241.283 105.3 244.84C105.89 247.731 107.173 250.435 109.04 252.72C111.25 255.47 114.04 257.23 116.84 259.3C117 259.43 117.17 259.18 117 259.05Z" fill="#263238"/>
<path d="M203.63 230.5C200.03 220.01 190.63 213.35 184.86 204.2C181.76 199.25 179.35 193.77 175.31 189.47C175.2 189.35 175 189.54 175.1 189.66C178.42 193.53 180.34 198.19 182.74 202.66C185.297 207.059 188.285 211.192 191.66 215C197.6 222.12 204.71 230.55 203.35 240.52C202.72 245.12 200 250.22 195.28 251.65C195.1 251.71 195.21 252.01 195.39 251.93C197.251 251.183 198.941 250.064 200.356 248.642C201.771 247.22 202.882 245.525 203.62 243.66C205.21 239.418 205.214 234.744 203.63 230.5Z" fill="#263238"/>
<path d="M204.06 233.32C204.385 229.347 203.469 225.371 201.44 221.94C199.37 218.56 196.12 216.12 192.87 213.94C189.12 211.45 185.17 209.08 182.79 205.13C182.69 204.96 182.45 205.13 182.54 205.3C186.32 211.82 193.54 214.86 198.37 220.35C203.92 226.62 203.93 235.75 200.11 242.92C197.682 247.291 194.256 251.026 190.11 253.82C190.04 253.82 190.11 253.97 190.19 253.92C197.26 249.28 203.49 242.14 204.06 233.32Z" fill="#263238"/>
<path d="M158.74 281.11C189.09 297.77 225.42 318.68 247.68 313.76C257.55 311.58 301.87 253.48 303.75 246.76C305.36 240.99 265.23 217.76 260.75 222.31C253.19 229.94 232.75 272.9 229.75 273.62C226.75 274.34 201.27 269.17 174.75 264.38C149.23 259.8 137.67 269.55 158.74 281.11Z" fill="#EB9481"/>
<path d="M299.44 254C302.9 249.64 317.02 228.26 319.61 221.43C322.2 214.6 328.26 194.43 323.24 191.89C318.22 189.35 316 195.1 316 195.1C316 195.1 317.21 186.17 311.92 184.1C306.63 182.03 303.43 191.1 303.43 191.1C303.43 191.1 304 181.84 298.57 180.1C293.14 178.36 291.46 188.1 291.46 188.1C291.46 188.1 292.38 179.66 287.32 180.1C281.24 180.69 281.32 196.45 277.88 203.77C277.1 205.43 259.67 236.35 259.67 236.35L299.44 254Z" fill="#EB9481"/>
<path d="M291.58 187.31C291.58 198.9 289.58 203.98 283.58 213.64C283.46 213.82 283.71 214.04 283.86 213.86C290.66 204.94 294.08 198.94 292.18 187.28C292.05 186.71 291.58 186.76 291.58 187.31Z" fill="#263238"/>
<path d="M303.37 190.19C302.37 202.19 300.23 207.75 294.62 218.34C294.54 218.49 294.79 218.64 294.88 218.49C301.25 208.57 304.53 202.49 303.97 190.34C304 189.79 303.42 189.64 303.37 190.19Z" fill="#263238"/>
<path d="M315.66 195.63C313.83 207.21 311.77 213.37 305.01 222.95C304.992 222.972 304.979 222.997 304.971 223.023C304.963 223.05 304.96 223.078 304.963 223.106C304.966 223.134 304.974 223.161 304.987 223.186C305 223.21 305.018 223.232 305.04 223.25C305.062 223.268 305.087 223.281 305.113 223.289C305.14 223.297 305.168 223.3 305.196 223.297C305.224 223.294 305.251 223.286 305.276 223.273C305.3 223.26 305.322 223.242 305.34 223.22C313.19 214.12 315.82 206.46 316.01 195.72C316 195 315.78 194.9 315.66 195.63Z" fill="#263238"/>
<path d="M251.08 239.85C251.08 239.85 250.23 225.36 251.27 218.91C252.31 212.46 265 189.84 270 192.3C276.51 195.49 271.75 209.99 268.49 216.79C268.49 216.79 283.55 224.13 282.39 235.28C281.23 246.43 251.08 239.85 251.08 239.85Z" fill="#EB9481"/>
<path d="M271.54 193.76C275.38 200.95 270.54 209.6 267.86 216.43C267.816 216.529 267.797 216.636 267.804 216.744C267.811 216.852 267.844 216.956 267.9 217.049C267.956 217.141 268.033 217.218 268.125 217.274C268.218 217.33 268.322 217.363 268.43 217.37C274.54 220.87 282.14 227.59 282.79 234.99C282.79 235.035 282.808 235.078 282.84 235.11C282.872 235.142 282.915 235.16 282.96 235.16C283.005 235.16 283.048 235.142 283.08 235.11C283.112 235.078 283.13 235.035 283.13 234.99C283.51 226.99 276.58 219.75 269.65 216.34C272.49 209.34 276.98 200.49 271.65 193.72C271.58 193.69 271.52 193.72 271.54 193.76Z" fill="#263238"/>
<path d="M222.53 271.25L186 301.87C186 301.87 163.7 290.27 147.23 276.94C130.76 263.61 149 257.13 177.28 261.88C205.56 266.63 222.53 271.25 222.53 271.25Z" fill="url(#paint4_linear_2073_8274)"/>
<path d="M179.26 277.4C178.225 275.987 177.027 274.702 175.69 273.57C177.169 276.749 179.306 279.578 181.96 281.87C181.243 280.277 180.337 278.776 179.26 277.4ZM147.26 276.96L147.7 277.3C147.99 276.99 148.28 276.66 148.55 276.3C148.09 276.51 147.66 276.73 147.24 277L147.26 276.96ZM208.41 277.16C206.682 276.906 204.93 276.853 203.19 277C204.822 277.616 206.52 278.042 208.25 278.27C209.977 278.532 211.729 278.589 213.47 278.44C211.832 277.818 210.127 277.389 208.39 277.16H208.41ZM196.18 265.32C196.157 265.988 196.181 266.656 196.25 267.32C196.494 266.72 196.701 266.105 196.87 265.48L196.18 265.32Z" fill="white"/>
<path d="M177.82 295.33C185.25 288.19 193.19 281.56 201.24 275.1C203.52 273.28 205.84 271.5 208.24 269.79C208.31 269.74 208.4 269.79 208.33 269.88C204.55 273.37 200.62 276.7 196.71 280.05C192.8 283.4 188.84 286.75 184.83 290C182.56 291.84 180.3 293.68 178 295.47C177.86 295.54 177.73 295.42 177.82 295.33Z" fill="#263238"/>
<path d="M201.52 288.86L185.99 301.86C185.99 301.86 163.69 290.27 147.22 276.94C141.37 272.21 139.9 268.35 141.69 265.54L201.52 288.86Z" fill="#263238"/>
<path d="M194 392.49H77.59C77.59 392.49 102.88 294.82 126.29 267.32C126.81 266.69 127.35 266.09 127.89 265.53C128 265.4 128.1 265.31 128.21 265.2C130.022 263.264 132.132 261.63 134.46 260.36C134.87 260.14 135.28 259.93 135.71 259.75C144.71 255.6 154.25 259.04 161.12 264.92C163.3 266.78 187.98 298.92 190.12 311.13C192.01 321.94 184.71 333.55 184.71 333.55L194 392.49Z" fill="url(#paint5_linear_2073_8274)"/>
<path d="M167.27 329.37C162.313 329.854 157.4 330.706 152.57 331.92C150.17 332.56 147.83 333.3 145.48 334.09C144.31 334.49 143.14 334.85 141.96 335.2C140.731 335.6 139.459 335.848 138.17 335.94C138.146 335.94 138.123 335.95 138.106 335.966C138.089 335.983 138.08 336.006 138.08 336.03C138.08 336.054 138.089 336.077 138.106 336.094C138.123 336.111 138.146 336.12 138.17 336.12C139.391 336.172 140.614 336.138 141.83 336.02C143.001 335.874 144.16 335.646 145.3 335.34C147.74 334.71 150.14 333.98 152.57 333.34C157.47 332.04 162.36 330.74 167.34 329.79C167.396 329.781 167.445 329.75 167.478 329.704C167.511 329.658 167.524 329.601 167.515 329.545C167.506 329.489 167.475 329.44 167.429 329.407C167.383 329.374 167.326 329.361 167.27 329.37Z" fill="#263238"/>
<path d="M179.57 333.66C175.479 333.267 171.369 333.103 167.26 333.17C165.26 333.22 163.17 333.38 161.12 333.59C160.12 333.7 159.12 333.82 158.2 333.95C157.28 334.08 156.08 334.38 155.01 334.51C154.9 334.51 154.9 334.7 155.01 334.69C156.01 334.6 157.06 334.69 158.08 334.64L161.15 334.53C163.15 334.47 165.24 334.42 167.29 334.33C171.39 334.16 175.48 334.03 179.58 333.99C179.8 334 179.78 333.68 179.57 333.66Z" fill="#263238"/>
<path d="M115.23 290.28C114.68 289.58 114.12 288.89 113.51 288.28L113.08 289.18C113.48 289.8 113.91 290.41 114.35 291C115.386 292.403 116.584 293.679 117.92 294.8C117.19 293.2 116.288 291.685 115.23 290.28ZM128.74 264.66C128.536 266.222 128.503 267.801 128.64 269.37C129.261 267.73 129.681 266.021 129.89 264.28C129.89 264.02 129.96 263.75 129.99 263.49C129.57 263.86 129.15 264.25 128.74 264.66ZM164.07 297.2C163.447 298.838 163.018 300.543 162.79 302.28C162.538 304.012 162.481 305.766 162.62 307.51C163.248 305.875 163.671 304.169 163.88 302.43C164.154 300.701 164.218 298.945 164.07 297.2ZM141.82 353.52C141.204 355.152 140.781 356.85 140.56 358.58C140.306 360.311 140.253 362.066 140.4 363.81C141.589 360.517 142.072 357.012 141.82 353.52ZM104 311C103.389 312.644 102.967 314.351 102.74 316.09C102.485 317.818 102.432 319.57 102.58 321.31C103.192 319.671 103.611 317.966 103.83 316.23C104.092 314.499 104.149 312.744 104 311ZM135.3 303.86C133.572 303.606 131.82 303.553 130.08 303.7C131.712 304.316 133.41 304.742 135.14 304.97C136.867 305.232 138.619 305.289 140.36 305.14C138.733 304.507 137.039 304.064 135.31 303.82L135.3 303.86ZM177.18 351.86C175.449 351.606 173.694 351.553 171.95 351.7C175.243 352.889 178.748 353.372 182.24 353.12C180.611 352.502 178.917 352.073 177.19 351.84L177.18 351.86ZM99 347.25C97.3016 347.004 95.5814 346.943 93.87 347.07H93.77H93.86C95.4753 347.666 97.1525 348.078 98.86 348.3C100.588 348.554 102.34 348.607 104.08 348.46C102.439 347.862 100.734 347.456 99 347.25ZM142.92 388.54C141.192 388.286 139.44 388.233 137.7 388.38C140.996 389.571 144.506 390.051 148 389.79C146.346 389.18 144.629 388.76 142.88 388.54H142.92ZM95.68 383.48C93.9485 383.226 92.1937 383.173 90.45 383.32C92.0834 383.928 93.7811 384.348 95.51 384.57C97.24 384.839 98.9967 384.892 100.74 384.73C99.0937 384.119 97.3824 383.699 95.64 383.48H95.68ZM144.06 279C142.651 280.048 141.366 281.252 140.23 282.59C141.826 281.864 143.335 280.962 144.73 279.9C146.136 278.856 147.412 277.648 148.53 276.3C146.945 277.033 145.446 277.938 144.06 279ZM156.52 332.53C155.115 333.563 153.839 334.762 152.72 336.1C154.311 335.379 155.811 334.472 157.19 333.4C158.598 332.37 159.874 331.171 160.99 329.83C159.4 330.561 157.9 331.474 156.52 332.55V332.53ZM112.83 365.25C111.417 366.281 110.137 367.483 109.02 368.83C110.605 368.097 112.104 367.192 113.49 366.13C114.896 365.087 116.18 363.889 117.32 362.56C115.715 363.27 114.206 364.18 112.83 365.27V365.25ZM185.39 318.18C184.355 316.767 183.157 315.482 181.82 314.35C183.299 317.529 185.436 320.358 188.09 322.65C187.372 321.064 186.465 319.57 185.39 318.2V318.18ZM170.5 378.75C169.457 377.344 168.259 376.059 166.93 374.92C167.631 376.526 168.535 378.034 169.62 379.41C170.653 380.818 171.852 382.098 173.19 383.22C172.461 381.635 171.559 380.136 170.5 378.75ZM126.66 331.11C125.622 329.7 124.424 328.414 123.09 327.28C123.799 328.884 124.706 330.392 125.79 331.77C126.82 333.181 128.019 334.46 129.36 335.58C128.632 333.993 127.726 332.493 126.66 331.11Z" fill="white"/>
<path d="M123.91 268.08C101.52 286.13 44.1799 357.66 57.1099 374.19C70.0399 390.72 155.98 383.19 180.93 375.37C188.35 373.05 168.11 325.96 160.09 323.79C153.41 321.98 116.37 332.93 115.65 330.79C114.84 328.37 124.8 314.98 137.46 285.97C152.06 252.51 133.8 260.11 123.91 268.08Z" fill="#EB9481"/>
<path d="M200.54 319.86C217.65 321.86 221.74 324.97 237.07 318.97C247.13 315.04 253.96 319.77 246.6 328.26C234.6 342.15 211.96 344.26 203.91 342.7L200.54 319.86Z" fill="#EB9481"/>
<path d="M152.55 324.39C152.55 324.39 173.78 318.9 192.22 319.2C204.98 319.41 232.68 322.96 251.48 356.07C255.94 363.92 256.73 378.28 244.78 368.07C236.3 360.84 233.11 353.69 227.41 350.38C227.41 350.38 226.24 368.75 218.2 372.92C211.168 376.556 203.886 379.687 196.41 382.29C195.618 381.031 194.91 379.722 194.29 378.37C194.29 378.37 186.41 381.55 174.29 377.14L152.55 324.39Z" fill="#EB9481"/>
<path d="M204.37 321.35C209.37 325.83 219.69 335.49 225.37 346.35C231.73 358.41 240.73 383.35 231.78 387.96C225.22 391.34 220.94 382.11 220.94 382.11C220.94 382.11 222.49 393.21 215.94 394.96C209.94 396.56 207.05 389.22 207.05 389.22C207.05 389.22 206.83 396.11 200.75 396.54C193.43 397.04 195.09 382.54 187.23 376.63C185.46 375.3 204.37 321.35 204.37 321.35Z" fill="#EB9481"/>
<path d="M211.55 351C215.55 356 221.66 369.6 221.14 381.93C221.14 382.21 220.91 382.35 220.87 382.09C218.994 371.413 215.828 361.003 211.44 351.09C211.428 351.075 211.422 351.057 211.424 351.038C211.426 351.019 211.435 351.002 211.45 350.99C211.464 350.978 211.483 350.972 211.502 350.974C211.521 350.976 211.538 350.985 211.55 351Z" fill="#263238"/>
<path d="M199.56 357.72C202.56 362.37 208.25 376.72 207.29 389.17C207.29 389.45 207.04 389.57 207.01 389.31C205.688 378.544 203.149 367.963 199.44 357.77C199.44 357.756 199.444 357.742 199.451 357.731C199.459 357.719 199.47 357.71 199.483 357.704C199.496 357.699 199.51 357.698 199.524 357.7C199.538 357.703 199.55 357.71 199.56 357.72Z" fill="#263238"/>
<path d="M227.44 350.3C232.44 353.3 235.23 356.83 238.95 361.16C240.768 363.328 242.704 365.395 244.75 367.35C246.63 369.1 249.4 371.73 252.22 370.48C253.79 369.78 254.22 367.9 254.35 366.34C254.473 364.586 254.217 362.826 253.6 361.18C253.6 361.1 253.72 361.04 253.75 361.13C254.364 362.582 254.768 364.114 254.95 365.68C255.187 367.152 254.975 368.661 254.34 370.01C252.78 372.77 249.18 372.25 246.92 370.8C245.583 369.874 244.34 368.819 243.21 367.65C242.1 366.56 241.04 365.42 240.01 364.26C237.9 361.86 235.93 359.35 233.85 356.94C231.812 354.642 229.627 352.477 227.31 350.46C227.22 350.38 227.34 350.24 227.44 350.3Z" fill="#263238"/>
<path d="M233.8 372.16C233.21 368.73 228.97 353.99 227.29 350.4C227.279 350.381 227.277 350.359 227.282 350.339C227.288 350.318 227.301 350.301 227.32 350.29C227.338 350.279 227.361 350.277 227.381 350.282C227.402 350.288 227.419 350.301 227.43 350.32C230.6 355.39 234.6 367.7 235.3 371.49C236 375.28 236.67 379.97 235.7 383.7C234.24 389.32 230.24 389.42 228.79 389.34C227.077 389.215 225.458 388.509 224.2 387.34C222.767 385.846 221.651 384.077 220.92 382.14C220.92 382.05 221.01 381.97 221.06 382.06C222.44 384.78 225.11 387.81 228.27 388.2C228.97 388.308 229.684 388.276 230.371 388.104C231.058 387.932 231.704 387.625 232.27 387.2C233.457 386.064 234.192 384.536 234.34 382.9C234.776 379.315 234.593 375.683 233.8 372.16Z" fill="#263238"/>
<path d="M207.29 389.17C207.9 390.04 208.91 392.79 211.34 393.95C212.185 394.432 213.134 394.7 214.107 394.734C215.079 394.767 216.044 394.563 216.92 394.14C218.59 393.103 219.792 391.457 220.27 389.55C220.674 387.11 220.891 384.643 220.92 382.17C220.92 382.05 221.07 382.04 221.08 382.17C221.391 384.852 221.297 387.566 220.8 390.22C220.565 391.26 220.125 392.242 219.505 393.109C218.885 393.977 218.098 394.711 217.19 395.27C216.228 395.795 215.14 396.044 214.046 395.989C212.952 395.935 211.894 395.578 210.99 394.96C210.08 394.33 207.44 391.48 206.99 389.24C207 389.17 207.26 389.13 207.29 389.17Z" fill="#263238"/>
<path d="M188 375.75C188.723 376.551 189.351 377.434 189.87 378.38C190.46 379.38 191.02 380.33 191.55 381.33C192.603 383.351 193.444 385.476 194.06 387.67C194.7 389.87 195.2 392.27 196.71 394.08C197.417 394.975 198.387 395.624 199.484 395.937C200.581 396.249 201.748 396.208 202.82 395.82C203.955 395.369 204.899 394.539 205.49 393.47C206.175 392.318 206.634 391.045 206.84 389.72C206.835 389.708 206.834 389.695 206.836 389.682C206.837 389.669 206.842 389.657 206.849 389.646C206.857 389.636 206.866 389.627 206.878 389.621C206.889 389.615 206.902 389.612 206.915 389.612C206.928 389.612 206.941 389.615 206.952 389.621C206.963 389.627 206.973 389.636 206.981 389.646C206.988 389.657 206.993 389.669 206.994 389.682C206.996 389.695 206.994 389.708 206.99 389.72C206.905 390.921 206.697 392.111 206.37 393.27C205.992 394.312 205.347 395.236 204.5 395.95C203.612 396.628 202.554 397.049 201.443 397.165C200.331 397.282 199.209 397.09 198.2 396.61C195.96 395.61 194.7 393.35 193.92 391.11C193.05 388.62 192.47 386.05 191.48 383.59C190.97 382.29 190.48 380.99 189.86 379.74C189.24 378.49 188.38 377.19 187.86 375.85C187.8 375.77 187.92 375.66 188 375.75Z" fill="#263238"/>
<path d="M180.19 378.85C183.351 379.307 186.549 379.464 189.74 379.32C189.84 379.32 189.9 379.61 189.8 379.63C188.218 379.926 186.609 380.05 185 380C183.369 379.931 181.758 379.618 180.22 379.07C180.09 379 180.09 378.83 180.19 378.85Z" fill="#263238"/>
<path d="M81.9999 341.5C87.3456 338.92 92.8698 336.728 98.5299 334.94C104.131 333.189 109.853 331.852 115.65 330.94C118.96 330.39 122.28 330 125.65 329.59C125.75 329.59 125.77 329.73 125.65 329.74C119.825 330.683 114.059 331.958 108.38 333.56C102.727 335.1 97.1066 336.743 91.5199 338.49C88.3599 339.49 85.2399 340.61 82.1099 341.7C81.9999 341.78 81.8999 341.57 81.9999 341.5Z" fill="#263238"/>
<path d="M77.13 311.51L124.52 316.66C124.52 316.66 136.61 294.66 142.9 274.39C149.19 254.12 131.33 258.06 110.46 277.71C89.59 297.36 77.13 311.51 77.13 311.51Z" fill="url(#paint6_linear_2073_8274)"/>
<path d="M77.13 311.51L124.52 316.66C124.52 316.66 136.61 294.66 142.9 274.39C149.19 254.12 131.33 258.06 110.46 277.71C89.59 297.36 77.13 311.51 77.13 311.51Z" fill="url(#paint7_linear_2073_8274)"/>
<path d="M128.82 264C128.825 264.05 128.825 264.1 128.82 264.15C128.566 265.881 128.513 267.636 128.66 269.38C129.281 267.74 129.701 266.031 129.91 264.29C129.91 263.99 129.99 263.7 130.02 263.4L128.82 264ZM104 311C103.566 312.091 103.231 313.219 103 314.37L104 314.47C104.11 313.316 104.11 312.154 104 311ZM87.56 300.33L87.1 300.81C87.62 300.81 88.1 300.81 88.67 300.72C88.29 300.57 87.93 300.44 87.56 300.33ZM130.09 303.66C130.37 303.77 130.66 303.88 130.95 303.97C131.002 303.84 131.062 303.713 131.13 303.59C130.79 303.6 130.44 303.62 130.09 303.66ZM115.23 290.28C114.187 288.874 112.989 287.589 111.66 286.45C112.363 288.057 113.267 289.569 114.35 290.95C115.386 292.353 116.584 293.628 117.92 294.75C117.187 293.167 116.285 291.669 115.23 290.28Z" fill="white"/>
<path d="M122.6 316.22C122.86 316.22 124.6 316.22 124.6 316.22C124.81 315.61 128.89 306.22 129.89 304.22C131.95 300.11 134.25 296.11 136.49 292.1C136.56 291.97 136.76 292.1 136.69 292.19C135.11 295.69 133.59 299.19 131.98 302.71C132.38 302.24 132.78 301.77 133.17 301.29C133.96 300.29 134.68 299.29 135.43 298.23C135.5 298.14 135.64 298.23 135.59 298.34C134.874 299.787 133.97 301.132 132.9 302.34C132.446 302.871 131.955 303.369 131.43 303.83C131.3 304.12 131.17 304.42 131.03 304.7C130.03 306.7 125.1 316.78 124.92 316.77L122.64 316.49C122.47 316.53 122.47 316.21 122.6 316.22Z" fill="#263238"/>
<path d="M86.06 303.46C96.34 304.15 106.59 305.56 116.78 307.16C119.673 307.62 122.547 308.143 125.4 308.73C125.48 308.73 125.48 308.87 125.4 308.86C120.28 308.41 115.17 307.75 110.06 307.12C104.95 306.49 99.8 305.81 94.69 305C91.81 304.56 88.92 304.12 86.05 303.63C85.93 303.64 85.93 303.45 86.06 303.46Z" fill="#263238"/>
<path d="M140.53 261.1C140.71 263.18 148.45 277.64 157.72 278.53C160.72 278.81 163.03 262.4 163.03 262.4L163.47 261.23L169.7 244.81L151.6 229.16L148.97 227.06C148.97 227.06 147.56 231.66 145.87 237.41C145.79 237.68 145.7 237.95 145.62 238.23C145.54 238.51 145.42 238.86 145.33 239.16C145.07 240.02 144.8 240.89 144.56 241.77C144.37 242.44 144.18 243.09 144 243.77C143.82 244.45 143.64 245.17 143.44 245.87C142.124 250.875 141.152 255.963 140.53 261.1Z" fill="#EB9481"/>
<path d="M145.87 237.41C146.901 242.419 149.009 247.144 152.048 251.258C155.087 255.371 158.984 258.774 163.47 261.23L169.7 244.81L151.6 229.16L148.97 227.06C148.97 227.06 147.56 231.66 145.87 237.41Z" fill="#263238"/>
<path d="M175.18 219.59C176.77 226.59 183.07 231.2 189.25 229.81C195.43 228.42 199.14 221.57 197.55 214.53C195.96 207.49 189.66 202.91 183.48 204.31C177.3 205.71 173.59 212.54 175.18 219.59Z" fill="#455A64"/>
<path d="M171.65 220.85C173.43 228.68 180.43 233.77 187.31 232.22C194.19 230.67 198.31 223.06 196.54 215.22C194.77 207.38 187.76 202.3 180.89 203.85C174.02 205.4 169.88 213 171.65 220.85Z" fill="#C7C7C7"/>
<path d="M191.87 210.83C200.27 240.48 183.46 248.83 177.06 250.67C171.25 252.31 151.27 257.15 139.85 228.52C128.43 199.89 139.56 186.61 152.64 182.16C165.72 177.71 183.47 181.17 191.87 210.83Z" fill="#EB9481"/>
<path d="M181.55 207.1C180.846 207.17 180.138 207.2 179.43 207.19C178.686 207.332 177.916 207.223 177.24 206.88C177.048 206.731 176.91 206.523 176.848 206.288C176.787 206.053 176.805 205.804 176.9 205.58C177.155 205.168 177.516 204.832 177.945 204.607C178.374 204.382 178.856 204.276 179.34 204.3C180.325 204.19 181.316 204.451 182.12 205.03C182.294 205.175 182.422 205.367 182.489 205.583C182.557 205.799 182.56 206.03 182.5 206.248C182.44 206.466 182.319 206.663 182.15 206.814C181.982 206.965 181.773 207.064 181.55 207.1Z" fill="#263238"/>
<path d="M162 214C162.679 213.79 163.347 213.543 164 213.26C164.74 213.097 165.407 212.696 165.9 212.12C166.017 211.907 166.06 211.662 166.024 211.421C165.988 211.181 165.874 210.959 165.7 210.79C165.303 210.511 164.839 210.342 164.356 210.302C163.873 210.262 163.387 210.351 162.95 210.56C162.001 210.845 161.193 211.473 160.68 212.32C160.575 212.52 160.53 212.746 160.55 212.971C160.57 213.196 160.656 213.41 160.795 213.588C160.935 213.766 161.123 213.899 161.337 213.972C161.55 214.045 161.781 214.055 162 214Z" fill="#263238"/>
<path d="M168 219.23C168 219.15 167.87 219.37 167.9 219.45C168.54 221.45 168.9 223.85 167.3 225.04C167.25 225.04 167.3 225.17 167.35 225.15C169.47 224.2 168.91 221 168 219.23Z" fill="#263238"/>
<path d="M165.58 217.63C162.26 218.31 163.86 224.89 166.94 224.26C170.02 223.63 168.36 217.06 165.58 217.63Z" fill="#263238"/>
<path d="M164.37 218.29C163.89 218.81 163.48 219.6 162.81 219.84C162.14 220.08 161.25 219.57 160.57 219.03C160.5 218.98 160.45 219.03 160.47 219.14C160.76 220.4 161.56 221.58 162.96 221.44C164.36 221.3 164.85 219.98 164.85 218.63C164.86 218.38 164.57 218.09 164.37 218.29Z" fill="#263238"/>
<path d="M179.69 215.62C179.69 215.54 179.88 215.68 179.89 215.76C180.31 217.82 181.13 220.11 183.14 220.35C183.2 220.35 183.22 220.46 183.14 220.47C180.82 220.68 179.76 217.63 179.69 215.62Z" fill="#263238"/>
<path d="M181 213.06C184.22 212.06 186 218.56 183 219.51C180 220.46 178.31 213.91 181 213.06Z" fill="#263238"/>
<path d="M182.5 213.11C183.11 213.31 183.79 213.8 184.42 213.67C185.05 213.54 185.48 212.67 185.75 211.86C185.75 211.78 185.85 211.86 185.87 211.86C186.25 213.1 186.2 214.51 185.06 215.08C183.92 215.65 182.93 214.75 182.29 213.59C182.17 213.43 182.25 213 182.5 213.11Z" fill="#263238"/>
<path d="M172.62 235.67C173.2 236.06 173.82 236.67 174.62 236.54C175.385 236.374 176.107 236.051 176.74 235.59C176.752 235.575 176.769 235.566 176.788 235.564C176.807 235.562 176.825 235.568 176.84 235.58C176.855 235.592 176.864 235.609 176.866 235.628C176.868 235.647 176.862 235.665 176.85 235.68C176.633 236.142 176.296 236.538 175.874 236.825C175.451 237.111 174.96 237.279 174.45 237.31C174.004 237.288 173.574 237.132 173.218 236.863C172.861 236.593 172.594 236.223 172.45 235.8C172.38 235.69 172.53 235.62 172.62 235.67Z" fill="#263238"/>
<path d="M179.33 225.51C179.33 225.51 180.52 228.44 180.89 229.87C180.89 230.01 175.97 232.41 172.79 229.47C172.757 229.447 172.734 229.413 172.726 229.373C172.719 229.334 172.727 229.293 172.75 229.26C172.772 229.227 172.807 229.204 172.847 229.196C172.886 229.189 172.927 229.197 172.96 229.22C175.105 230.001 177.444 230.068 179.63 229.41C179.63 228.99 177.41 224.46 177.63 224.41C178.767 224.223 179.924 224.189 181.07 224.31C178.75 218.14 175.47 212.39 173.26 206.2C173.24 206.154 173.239 206.103 173.255 206.056C173.271 206.009 173.305 205.969 173.348 205.946C173.392 205.922 173.443 205.915 173.492 205.927C173.54 205.939 173.582 205.969 173.61 206.01C177.48 211.8 180.3 218.85 182.85 225.16C183.19 225.93 180 225.61 179.33 225.51Z" fill="#263238"/>
<path d="M179.62 230.1C179.089 231.427 178.228 232.597 177.12 233.5C176.498 233.967 175.747 234.232 174.97 234.26C173.26 234.26 172.81 232.85 172.75 231.52C172.726 230.816 172.783 230.111 172.92 229.42C175.023 230.358 177.371 230.596 179.62 230.1Z" fill="#263238"/>
<path d="M177.12 233.5C176.498 233.967 175.747 234.232 174.97 234.26C173.26 234.26 172.81 232.85 172.75 231.52C174.5 231.21 176.5 231.89 177.12 233.5Z" fill="#FF99BA"/>
<path d="M141.28 227.53C147.02 227.9 147.68 214.77 147.68 214.77C147.68 214.77 171.68 209.18 172.54 189.3C172.54 189.3 177.47 201.64 190.54 206.56C190.54 206.56 188.37 184.96 170.95 181.8C170.95 181.8 149.17 175.34 138.22 192.98C127.27 210.62 137.43 227.28 141.28 227.53Z" fill="#263238"/>
<path d="M172.54 187.83C173.014 190.863 172.833 193.963 172.01 196.92C171.233 199.926 169.836 202.736 167.91 205.17C167.438 205.782 166.927 206.363 166.38 206.91L165.58 207.76C165.3 208.02 165 208.26 164.7 208.51C164.1 208.99 163.52 209.51 162.9 209.96C162.28 210.41 161.6 210.78 160.9 211.18C160.57 211.37 160.25 211.58 159.9 211.76L158.9 212.24L156.81 213.19C155.37 213.69 153.91 214.11 152.46 214.51C153.81 213.82 155.21 213.27 156.54 212.58L158.49 211.48L159.49 210.93C159.8 210.73 160.09 210.5 160.39 210.28C160.99 209.84 161.59 209.41 162.2 208.99C162.81 208.57 163.3 207.99 163.85 207.54L164.68 206.81L165.42 205.99C165.929 205.465 166.406 204.911 166.85 204.33C168.667 202.012 170.077 199.401 171.02 196.61C171.502 195.209 171.87 193.771 172.12 192.31C172.386 190.831 172.526 189.333 172.54 187.83Z" fill="#263238"/>
<path d="M145.56 227.22C145.56 227.22 137.14 219.03 133.31 222.22C129.48 225.41 137.07 238.15 142.46 239.05C143.143 239.214 143.852 239.239 144.545 239.122C145.237 239.005 145.899 238.749 146.491 238.37C147.082 237.991 147.59 237.496 147.986 236.915C148.381 236.334 148.654 235.679 148.79 234.99L145.56 227.22Z" fill="#EB9481"/>
<path d="M135.58 225.81C135.561 225.81 135.544 225.817 135.531 225.83C135.517 225.844 135.51 225.861 135.51 225.88C135.51 225.898 135.517 225.916 135.531 225.929C135.544 225.943 135.561 225.95 135.58 225.95C139.39 226.7 141.87 229.62 143.83 232.76C142.53 231.66 140.96 231.22 139.45 232.76C139.37 232.85 139.45 232.97 139.58 232.93C140.164 232.615 140.831 232.489 141.49 232.567C142.148 232.646 142.767 232.926 143.26 233.37C144.081 234.115 144.819 234.946 145.46 235.85C145.68 236.14 146.22 235.85 146.03 235.52L145.98 235.44C145.2 231 140.49 225.34 135.58 225.81Z" fill="#263238"/>
<path d="M139.8 223.05C139.8 223.05 134.34 208.5 136.23 199C138.33 188.42 151.44 176.35 166.43 180.87C166.43 180.87 148.6 183.54 142.3 197.87C139.4 204.47 144.88 221.94 144.88 221.94L139.8 223.05Z" fill="#C7C7C7"/>
<path d="M148.221 243.787C154.838 241.725 158.298 233.938 155.948 226.392C153.597 218.846 146.328 214.4 139.71 216.461C133.092 218.522 129.633 226.31 131.983 233.856C134.333 241.402 141.603 245.848 148.221 243.787Z" fill="#C7C7C7"/>
<path d="M152.34 227C154.45 233.78 151.34 240.78 145.34 242.63C139.34 244.48 132.86 240.49 130.74 233.71C128.62 226.93 131.74 219.93 137.74 218.07C143.74 216.21 150.23 220.26 152.34 227Z" fill="#455A64"/>
<path d="M163.4 261.33L157.9 275.21L140.6 257.76L135.75 263.4C135.75 263.4 152.75 291.18 152.81 289.92L158.47 277.92L166.75 286.19L166 265.37L163.4 261.33Z" fill="#EBEBEB"/>
<path d="M167 275.89C166.75 272.46 166.61 268.98 166.21 265.56C166.21 265.44 166 265.39 165.97 265.56C165.3 268.88 166.29 282.03 166.29 285.18C165.95 284.82 158.62 277.9 158.55 278.01C157.32 279.91 153.17 288.63 152.89 289.42C150.2 285.01 138.82 267.62 135.65 263.42C135.631 263.401 135.606 263.389 135.58 263.385C135.553 263.382 135.526 263.388 135.503 263.401C135.48 263.415 135.462 263.436 135.452 263.462C135.443 263.487 135.442 263.514 135.45 263.54C137.82 268.2 152.52 291.15 152.73 291.09C154.917 286.977 156.893 282.754 158.65 278.44C159.89 279.95 167.29 287.76 167.31 287.25C167.403 283.461 167.299 279.669 167 275.89Z" fill="#263238"/>
<path d="M263.48 168.85C262.88 174.602 260.693 180.075 257.163 184.657C253.634 189.239 248.901 192.75 243.492 194.798C238.083 196.846 232.212 197.351 226.533 196.257C220.853 195.163 215.59 192.512 211.33 188.6L195.71 190.89L203.53 177.39C201.76 172.999 201.012 168.263 201.343 163.54C201.675 158.817 203.076 154.231 205.441 150.13C207.806 146.029 211.074 142.519 214.996 139.868C218.918 137.216 223.392 135.491 228.079 134.824C232.766 134.157 237.544 134.565 242.05 136.017C246.556 137.469 250.673 139.927 254.089 143.206C257.504 146.484 260.129 150.497 261.765 154.94C263.401 159.383 264.004 164.139 263.53 168.85H263.48Z" fill="white"/>
<path d="M263.48 168.85C262.876 174.605 260.696 180.083 257.18 184.68C255.453 186.976 253.39 188.999 251.06 190.68C248.759 192.424 246.224 193.834 243.53 194.87C240.833 195.925 238.003 196.598 235.12 196.87C233.681 197.002 232.233 197.028 230.79 196.95C229.34 196.915 227.896 196.765 226.47 196.5C220.71 195.463 215.353 192.842 211 188.93L211.37 189.04L195.77 191.44L194.64 191.61L195.21 190.61L203 177.08V177.62C201.168 173.145 200.39 168.309 200.724 163.485C201.059 158.661 202.498 153.979 204.93 149.8C207.358 145.636 210.699 142.077 214.7 139.39C218.698 136.742 223.244 135.034 227.996 134.393C232.748 133.753 237.584 134.196 242.14 135.69C246.641 137.228 250.741 139.753 254.14 143.08C257.544 146.39 260.153 150.428 261.77 154.892C263.388 159.356 263.973 164.128 263.48 168.85ZM263.48 168.85C263.979 164.149 263.392 159.396 261.764 154.958C260.136 150.52 257.511 146.514 254.091 143.251C250.671 139.987 246.547 137.552 242.037 136.134C237.528 134.716 232.753 134.352 228.08 135.07C223.451 135.765 219.042 137.51 215.19 140.17C211.375 142.846 208.188 146.319 205.85 150.35C203.549 154.395 202.195 158.909 201.89 163.553C201.585 168.196 202.338 172.849 204.09 177.16L204.2 177.44L204.05 177.69L196.19 191.17L195.63 190.34L211.26 188.15H211.48L211.63 188.3C215.818 192.209 221.012 194.875 226.63 196C228.025 196.28 229.439 196.45 230.86 196.51C232.282 196.61 233.708 196.61 235.13 196.51C237.981 196.287 240.788 195.672 243.47 194.68C246.168 193.708 248.706 192.34 251 190.62C253.345 188.95 255.417 186.926 257.14 184.62C260.666 180.048 262.86 174.59 263.48 168.85Z" fill="#263238"/>
<path d="M246.06 170.33C248.148 170.33 249.84 168.638 249.84 166.55C249.84 164.462 248.148 162.77 246.06 162.77C243.972 162.77 242.28 164.462 242.28 166.55C242.28 168.638 243.972 170.33 246.06 170.33Z" fill="#263238"/>
<path d="M232.51 170.33C234.598 170.33 236.29 168.638 236.29 166.55C236.29 164.462 234.598 162.77 232.51 162.77C230.422 162.77 228.73 164.462 228.73 166.55C228.73 168.638 230.422 170.33 232.51 170.33Z" fill="#263238"/>
<path d="M218.97 170.33C221.058 170.33 222.75 168.638 222.75 166.55C222.75 164.462 221.058 162.77 218.97 162.77C216.882 162.77 215.19 164.462 215.19 166.55C215.19 168.638 216.882 170.33 218.97 170.33Z" fill="#263238"/>
<path d="M574 168.85C573.4 174.602 571.213 180.075 567.683 184.657C564.154 189.239 559.421 192.75 554.012 194.798C548.603 196.846 542.732 197.351 537.053 196.257C531.373 195.163 526.11 192.512 521.85 188.6L506.23 190.89L514.04 177.39C512.263 172.996 511.509 168.256 511.836 163.528C512.162 158.8 513.561 154.208 515.927 150.101C518.292 145.994 521.561 142.48 525.486 139.824C529.411 137.168 533.89 135.441 538.582 134.773C543.274 134.105 548.056 134.514 552.567 135.969C557.077 137.424 561.197 139.887 564.614 143.171C568.032 146.455 570.656 150.474 572.289 154.923C573.922 159.372 574.521 164.135 574.04 168.85H574Z" fill="white"/>
<path d="M574 168.85C573.391 174.604 571.211 180.081 567.7 184.68C566.822 185.818 565.877 186.903 564.87 187.93C563.828 188.927 562.726 189.859 561.57 190.72C559.272 192.468 556.736 193.878 554.04 194.91C551.347 195.965 548.52 196.638 545.64 196.91C544.197 197.042 542.747 197.068 541.3 196.99C539.85 196.955 538.406 196.804 536.98 196.54C531.225 195.483 525.879 192.844 521.54 188.92L521.91 189.03L506.31 191.43L505.18 191.6L505.75 190.6L513.52 177.07V177.61C511.689 173.135 510.91 168.3 511.243 163.476C511.576 158.653 513.012 153.971 515.44 149.79C517.872 145.626 521.216 142.067 525.22 139.38C529.218 136.732 533.763 135.024 538.516 134.383C543.268 133.743 548.103 134.186 552.66 135.68C557.161 137.217 561.262 139.742 564.66 143.07C568.067 146.38 570.678 150.42 572.296 154.885C573.914 159.351 574.496 164.126 574 168.85ZM574 168.85C574.499 164.149 573.912 159.396 572.284 154.958C570.656 150.52 568.031 146.514 564.611 143.251C561.191 139.987 557.067 137.552 552.557 136.134C548.048 134.716 543.272 134.352 538.6 135.07C533.971 135.765 529.562 137.51 525.71 140.17C521.895 142.846 518.708 146.319 516.37 150.35C514.053 154.393 512.685 158.91 512.37 163.56C512.076 168.2 512.824 172.847 514.56 177.16L514.68 177.44L514.53 177.69L506.67 191.17L506.11 190.34L521.74 188.15H521.96L522.11 188.3C526.284 192.201 531.46 194.867 537.06 196C538.454 196.28 539.869 196.45 541.29 196.51C542.711 196.61 544.138 196.61 545.56 196.51C548.411 196.287 551.218 195.672 553.9 194.68C556.597 193.706 559.134 192.338 561.43 190.62C563.769 188.947 565.837 186.923 567.56 184.62C571.126 180.061 573.355 174.602 574 168.85Z" fill="#263238"/>
<path d="M556.53 170.33C558.618 170.33 560.31 168.638 560.31 166.55C560.31 164.462 558.618 162.77 556.53 162.77C554.442 162.77 552.75 164.462 552.75 166.55C552.75 168.638 554.442 170.33 556.53 170.33Z" fill="#263238"/>
<path d="M542.99 170.33C545.078 170.33 546.77 168.638 546.77 166.55C546.77 164.462 545.078 162.77 542.99 162.77C540.902 162.77 539.21 164.462 539.21 166.55C539.21 168.638 540.902 170.33 542.99 170.33Z" fill="#263238"/>
<path d="M533.23 166.55C533.232 167.298 533.012 168.03 532.598 168.653C532.184 169.275 531.594 169.762 530.904 170.049C530.213 170.337 529.453 170.413 528.719 170.268C527.985 170.124 527.31 169.764 526.781 169.236C526.251 168.708 525.89 168.034 525.743 167.301C525.597 166.567 525.671 165.807 525.957 165.116C526.243 164.424 526.727 163.833 527.349 163.418C527.971 163.002 528.702 162.78 529.45 162.78C530.451 162.78 531.411 163.177 532.119 163.883C532.828 164.59 533.227 165.549 533.23 166.55Z" fill="#263238"/>
<path d="M211.8 390.17H205.11V394.54H211.8V390.17Z" fill="#455A64"/>
<path d="M220.48 389.88H213.79V394.25H220.48V389.88Z" fill="#455A64"/>
<path d="M229.16 389.59H222.47V393.96H229.16V389.59Z" fill="#455A64"/>
<path d="M237.83 389.3H231.14V393.67H237.83V389.3Z" fill="#455A64"/>
<path d="M246.51 389.01H239.82V393.38H246.51V389.01Z" fill="#455A64"/>
<path d="M255.19 388.73H248.5V393.1H255.19V388.73Z" fill="#455A64"/>
<path d="M263.86 388.44H257.17V392.81H263.86V388.44Z" fill="#455A64"/>
<path d="M272.54 388.15H265.85V392.52H272.54V388.15Z" fill="#455A64"/>
<path d="M281.21 387.86H274.52V392.23H281.21V387.86Z" fill="#455A64"/>
<path d="M282.85 397.05H203.47V391.73L282.85 389.52V397.05Z" fill="#37474F"/>
<path d="M360.33 376.09H229.29L250.13 278.53H381.17L360.33 376.09Z" fill="#455A64"/>
<path d="M365.18 376.09H234.13L254.97 278.53H386.02L365.18 376.09Z" fill="#37474F"/>
<path d="M321.4 321.66C320.998 323.881 319.847 325.897 318.138 327.371C316.429 328.845 314.266 329.689 312.01 329.76C310.992 329.792 309.98 329.592 309.05 329.177C308.121 328.761 307.297 328.14 306.642 327.361C305.986 326.581 305.516 325.663 305.266 324.676C305.017 323.689 304.994 322.657 305.2 321.66C305.598 319.438 306.746 317.42 308.454 315.944C310.161 314.468 312.324 313.622 314.58 313.55C315.6 313.516 316.614 313.715 317.546 314.13C318.478 314.546 319.303 315.168 319.96 315.948C320.617 316.729 321.087 317.649 321.337 318.639C321.586 319.628 321.608 320.661 321.4 321.66Z" fill="#263238"/>
<path d="M328.12 401.57H263.67V396.56L328.12 394.48V401.57Z" fill="#455A64"/>
<path d="M345.64 401.56H311.03L290.19 346.89H324.8L345.64 401.56Z" fill="#455A64"/>
<path d="M351.33 401.56H316.73L295.89 346.89H330.49L351.33 401.56Z" fill="#263238"/>
<path d="M201 402.9H134.58C128.91 402.9 137.11 386.75 157.81 380.56C178.51 374.37 207.55 396.84 201 402.9Z" fill="#37474F"/>
<path d="M175 402.9C175.045 401.06 175.348 399.236 175.9 397.48C176.433 395.705 177.182 394.002 178.13 392.41C179.08 390.808 180.271 389.361 181.66 388.12C183.038 386.889 184.622 385.91 186.34 385.23C185.63 385.81 184.82 386.23 184.17 386.86L183.17 387.73L182.23 388.73C181.002 390.016 179.925 391.439 179.02 392.97C178.1 394.501 177.311 396.107 176.66 397.77C175.993 399.441 175.438 401.155 175 402.9Z" fill="#263238"/>
<path d="M182.82 387.53C186.773 388.781 190.512 390.625 193.91 393C195.63 394.188 197.186 395.597 198.54 397.19C199.96 398.775 200.824 400.78 201 402.9C200.449 400.945 199.394 399.169 197.94 397.75C196.523 396.307 194.973 395.001 193.31 393.85C191.66 392.66 189.93 391.59 188.17 390.54C186.41 389.49 184.64 388.5 182.82 387.53Z" fill="#263238"/>
<path d="M518.66 390.17H511.97V394.54H518.66V390.17Z" fill="#455A64"/>
<path d="M527.34 389.88H520.65V394.25H527.34V389.88Z" fill="#455A64"/>
<path d="M536.02 389.59H529.33V393.96H536.02V389.59Z" fill="#455A64"/>
<path d="M544.69 389.3H538V393.67H544.69V389.3Z" fill="#455A64"/>
<path d="M553.37 389.01H546.68V393.38H553.37V389.01Z" fill="#455A64"/>
<path d="M562.05 388.73H555.36V393.1H562.05V388.73Z" fill="#455A64"/>
<path d="M570.72 388.44H564.03V392.81H570.72V388.44Z" fill="#455A64"/>
<path d="M579.4 388.15H572.71V392.52H579.4V388.15Z" fill="#455A64"/>
<path d="M588.08 387.86H581.39V392.23H588.08V387.86Z" fill="#455A64"/>
<path d="M589.72 397.05H510.34V391.73L589.72 389.52V397.05Z" fill="#37474F"/>
<path d="M667.19 376.09H536.15L556.99 278.53H688.03L667.19 376.09Z" fill="#455A64"/>
<path d="M672.04 376.09H541L561.84 278.53H692.88L672.04 376.09Z" fill="#37474F"/>
<path d="M628.26 321.66C627.859 323.879 626.709 325.894 625.002 327.368C623.295 328.842 621.134 329.686 618.88 329.76C617.861 329.793 616.848 329.595 615.917 329.18C614.986 328.765 614.161 328.144 613.505 327.365C612.848 326.585 612.377 325.666 612.127 324.678C611.877 323.69 611.854 322.658 612.06 321.66C612.459 319.439 613.609 317.422 615.316 315.946C617.023 314.47 619.185 313.624 621.44 313.55C622.46 313.516 623.474 313.715 624.406 314.13C625.338 314.546 626.163 315.168 626.82 315.948C627.477 316.729 627.948 317.649 628.197 318.639C628.446 319.628 628.468 320.661 628.26 321.66Z" fill="#263238"/>
<path d="M634.98 401.57H570.53V396.56L634.98 394.48V401.57Z" fill="#455A64"/>
<path d="M652.5 401.56H617.89L597.05 346.89H631.66L652.5 401.56Z" fill="#455A64"/>
<path d="M658.2 401.56H623.59L602.75 346.89H637.36L658.2 401.56Z" fill="#263238"/>
<path d="M507.89 402.9H441.44C435.77 402.9 443.97 386.75 464.67 380.56C485.37 374.37 514.41 396.84 507.89 402.9Z" fill="#37474F"/>
<path d="M481.81 402.9C481.859 401.06 482.162 399.237 482.71 397.48C483.248 395.707 483.996 394.005 484.94 392.41C485.897 390.812 487.086 389.366 488.47 388.12C489.848 386.889 491.432 385.91 493.15 385.23C492.44 385.81 491.63 386.23 490.98 386.86L489.98 387.73L489.04 388.73C487.806 390.013 486.725 391.436 485.82 392.97C484.9 394.501 484.111 396.107 483.46 397.77C482.796 399.441 482.245 401.155 481.81 402.9Z" fill="#263238"/>
<path d="M489.68 387.53C493.632 388.781 497.372 390.625 500.77 393C502.491 394.191 504.05 395.599 505.41 397.19C506.826 398.764 507.695 400.752 507.89 402.86C507.336 400.904 506.277 399.128 504.82 397.71C503.403 396.267 501.853 394.961 500.19 393.81C498.55 392.62 496.81 391.55 495.05 390.5C493.29 389.45 491.51 388.5 489.68 387.53Z" fill="#263238"/>
<defs>
<linearGradient id="paint0_linear_2073_8274" x1="524.238" y1="253.73" x2="524.238" y2="351.5" gradientUnits="userSpaceOnUse">
<stop stop-color="#C44EE1"/>
<stop offset="1" stop-color="#F53E3E"/>
</linearGradient>
<linearGradient id="paint1_linear_2073_8274" x1="524.206" y1="253.74" x2="524.206" y2="351.491" gradientUnits="userSpaceOnUse">
<stop stop-color="#C44EE1"/>
<stop offset="1" stop-color="#F53E3E"/>
</linearGradient>
<linearGradient id="paint2_linear_2073_8274" x1="449.823" y1="250.339" x2="449.823" y2="392.61" gradientUnits="userSpaceOnUse">
<stop stop-color="#C44EE1"/>
<stop offset="1" stop-color="#F53E3E"/>
</linearGradient>
<linearGradient id="paint3_linear_2073_8274" x1="438.834" y1="256.875" x2="438.834" y2="388.77" gradientUnits="userSpaceOnUse">
<stop stop-color="#C44EE1"/>
<stop offset="1" stop-color="#F53E3E"/>
</linearGradient>
<linearGradient id="paint4_linear_2073_8274" x1="181.759" y1="260.329" x2="181.759" y2="301.87" gradientUnits="userSpaceOnUse">
<stop stop-color="#C44EE1"/>
<stop offset="1" stop-color="#F53E3E"/>
</linearGradient>
<linearGradient id="paint5_linear_2073_8274" x1="135.795" y1="257.925" x2="135.795" y2="392.49" gradientUnits="userSpaceOnUse">
<stop stop-color="#C44EE1"/>
<stop offset="1" stop-color="#F53E3E"/>
</linearGradient>
<linearGradient id="paint6_linear_2073_8274" x1="110.655" y1="260.957" x2="110.655" y2="316.66" gradientUnits="userSpaceOnUse">
<stop stop-color="#C44EE1"/>
<stop offset="1" stop-color="#F53E3E"/>
</linearGradient>
<linearGradient id="paint7_linear_2073_8274" x1="110.655" y1="260.957" x2="110.655" y2="316.66" gradientUnits="userSpaceOnUse">
<stop stop-color="#C44EE1"/>
<stop offset="1" stop-color="#F53E3E"/>
</linearGradient>
</defs>
</svg>
